<svg id="_38488" data-name="38488" xmlns="http://www.w3.org/2000/svg" width="21.485" height="17.836" viewBox="0 0 21.485 17.836">
  <g id="Group_7643" data-name="Group 7643" transform="translate(1.373 0.34)" opacity="0">
    <path id="Path_6210" data-name="Path 6210" d="M3.438,149.765l1.537-1.537a9.594,9.594,0,0,1-2.314-1.954,9.611,9.611,0,0,1,3.707-2.649,3.862,3.862,0,0,0,.011,3.2l1.241-1.241a1.067,1.067,0,1,1,1.509-1.51l1.128-1.128,1.27-1.27.637-.637a11.6,11.6,0,0,0-2.248-.224,11.724,11.724,0,0,0-9.465,4.836L0,146.274l.451.622A11.687,11.687,0,0,0,3.438,149.765Z" transform="translate(0 -137.102)" fill="#4c4f50"/>
    <path id="Path_6211" data-name="Path 6211" d="M211.893,189l-1.555,1.555a9.6,9.6,0,0,1,2.807,2.234,9.6,9.6,0,0,1-7.255,3.337,9.478,9.478,0,0,1-1.063-.06l-1.816,1.816a11.6,11.6,0,0,0,2.878.366,11.724,11.724,0,0,0,9.465-4.836l.451-.622-.451-.622A11.7,11.7,0,0,0,211.893,189Z" transform="translate(-195.975 -183.614)" fill="#4c4f50"/>
    <path id="Path_6212" data-name="Path 6212" d="M270.216,255.745a3.861,3.861,0,0,0,3.843-4.458l-4.411,4.412A3.9,3.9,0,0,0,270.216,255.745Z" transform="translate(-260.3 -243.744)" fill="#4c4f50"/>
    <path id="Path_6213" data-name="Path 6213" d="M42.209,45.467l4.956-4.956.173-.173,1.587-1.587,3.008-3.008a1.2,1.2,0,1,0-1.7-1.7L46.478,37.8l-.789.789L44.675,39.6,43.006,41.27l-1.194,1.194L40.285,43.99l-1.148,1.148L37.576,46.7l-2.434,2.434a1.2,1.2,0,1,0,1.7,1.7l3.082-3.082,1.736-1.736Z" transform="translate(-33.584 -33.69)" fill="#4c4f50"/>
  </g>
  <g id="_883314" data-name="883314" transform="translate(0 -76)">
    <path id="Path_6200" data-name="Path 6200" d="M35.085,186c3.67,0,7.206,2.175,9.665,4.679a11.359,11.359,0,0,1-19.331,0C27.879,188.175,31.416,186,35.085,186Z" transform="translate(-24.353 -105.384)" fill="#e3f2ff"/>
    <path id="Path_6201" data-name="Path 6201" d="M191.625,238.937a2.937,2.937,0,1,0-2.937,2.937A2.937,2.937,0,0,0,191.625,238.937Z" transform="translate(-177.955 -153.286)" fill="#00ba53"/>
    <path id="Path_6202" data-name="Path 6202" d="M236.589,286a.839.839,0,1,1-.839.839A.839.839,0,0,1,236.589,286Z" transform="translate(-225.857 -201.188)" fill="#57555c"/>
    <path id="Path_6203" data-name="Path 6203" d="M186.714,256.714a.42.42,0,1,0-.593,0A.419.419,0,0,0,186.714,256.714Z" transform="translate(-178.192 -172.444)"/>
    <path id="Path_6204" data-name="Path 6204" d="M228.518,277.259a1.259,1.259,0,1,0-1.259,1.259A1.26,1.26,0,0,0,228.518,277.259Zm-1.679,0a.42.42,0,1,1,.42.42A.42.42,0,0,1,226.839,277.259Z" transform="translate(-216.516 -191.607)"/>
    <path id="Path_6205" data-name="Path 6205" d="M179.357,232.714a3.357,3.357,0,1,0-1.348-6.432.42.42,0,1,0,.338.768,2.5,2.5,0,0,1,1.01-.211,2.518,2.518,0,1,1-2.518,2.518c0-.014,0-.028,0-.043a.42.42,0,0,0-.839-.019c0,.021,0,.041,0,.062A3.361,3.361,0,0,0,179.357,232.714Z" transform="translate(-168.614 -143.706)"/>
    <path id="Path_6206" data-name="Path 6206" d="M246.839,78.937V76.42a.42.42,0,1,0-.839,0v2.518a.42.42,0,1,0,.839,0Z" transform="translate(-235.677)"/>
    <path id="Path_6207" data-name="Path 6207" d="M87.286,107.286a.42.42,0,0,0,0-.593l-1.78-1.78a.42.42,0,1,0-.593.593l1.78,1.78A.42.42,0,0,0,87.286,107.286Z" transform="translate(-81.231 -27.581)"/>
    <path id="Path_6208" data-name="Path 6208" d="M365.507,107.286l1.78-1.78a.42.42,0,1,0-.594-.593l-1.78,1.78a.42.42,0,1,0,.594.593Z" transform="translate(-349.482 -27.581)"/>
    <path id="Path_6209" data-name="Path 6209" d="M.105,181.527a.42.42,0,0,0,.629.556c.089-.1.181-.2.274-.3a11.8,11.8,0,0,0,19.469,0c.093.1.184.2.274.3a.42.42,0,0,0,.629-.556C18.714,178.509,14.756,176,10.743,176S2.77,178.51.105,181.527Zm10.637-4.688c4.185,0,7.64,2.858,9.135,4.323a10.954,10.954,0,0,1-18.27,0C3.1,179.7,6.557,176.839,10.743,176.839Z" transform="translate(0 -95.804)"/>
  </g>
</svg>
