<svg xmlns="http://www.w3.org/2000/svg" width="27.16" height="24.444" viewBox="0 0 27.16 24.444">
  <path id="bi_active" d="M25.086,7.074H21.012V5.716A2.716,2.716,0,0,0,18.3,3H12.864a2.716,2.716,0,0,0-2.716,2.716V7.074H6.074A4.074,4.074,0,0,0,2,11.148V23.37a4.074,4.074,0,0,0,4.074,4.074H25.086A4.074,4.074,0,0,0,29.16,23.37V11.148A4.074,4.074,0,0,0,25.086,7.074ZM12.864,5.716H18.3V7.074H12.864ZM26.444,23.37a1.358,1.358,0,0,1-1.358,1.358H6.074A1.358,1.358,0,0,1,4.716,23.37V16.58h5.432v1.358a1.358,1.358,0,0,0,2.716,0V16.58H18.3v1.358a1.358,1.358,0,0,0,2.716,0V16.58h5.432Zm0-9.506H4.716V11.148A1.358,1.358,0,0,1,6.074,9.79H25.086a1.358,1.358,0,0,1,1.358,1.358Z" transform="translate(-2 -3)" fill="#fff"/>
</svg>
