<svg xmlns="http://www.w3.org/2000/svg" width="338.801" height="300" viewBox="0 0 338.801 300">
  <g id="Bi_img" transform="translate(-56.11 -84.19)">
    <g id="freepik--Shadow--inject-265" transform="translate(56.11 364.41)">
      <ellipse id="freepik--path--inject-265" cx="169.4" cy="9.89" rx="169.4" ry="9.89" transform="translate(0)" fill="#f5f5f5"/>
    </g>
    <g id="freepik--design-stats--inject-265" transform="translate(123.112 84.19)">
      <path id="Path_7289" data-name="Path 7289" d="M372.9,284.011H142.742a9.873,9.873,0,0,1-9.925-10.484l8.588-175.612A11.113,11.113,0,0,1,152.362,87.43H382.519a9.864,9.864,0,0,1,9.925,10.484l-8.588,175.612A11.122,11.122,0,0,1,372.9,284.011Z" transform="translate(-132.798 -84.599)" fill="#b0bec5"/>
      <path id="Path_7290" data-name="Path 7290" d="M372.9,284.011H142.742a9.873,9.873,0,0,1-9.925-10.484l8.588-175.612A11.113,11.113,0,0,1,152.362,87.43H382.519a9.864,9.864,0,0,1,9.925,10.484l-8.588,175.612A11.122,11.122,0,0,1,372.9,284.011Z" transform="translate(-132.798 -84.599)" fill="#fff" opacity="0.7"/>
      <path id="Path_7291" data-name="Path 7291" d="M428.175,89.039a11.569,11.569,0,0,0-4.465-3.058l.315-.821a12.729,12.729,0,0,1,4.8,3.285Z" transform="translate(-169.542 -84.312)" fill="#b0bec5"/>
      <rect id="Rectangle_7959" data-name="Rectangle 7959" width="18.4" height="0.874" transform="translate(231.434 0)" fill="#b0bec5"/>
      <path id="Path_7292" data-name="Path 7292" d="M383.763,87.49H153.606A11.113,11.113,0,0,0,142.65,97.974H393.706a9.864,9.864,0,0,0-9.943-10.484Z" transform="translate(-134.043 -84.607)" fill="#b0bec5"/>
      <path id="Path_7293" data-name="Path 7293" d="M140.859,274.689,148.844,112.3a5.172,5.172,0,0,1,5.111-4.875H381.247a4.6,4.6,0,0,1,4.639,4.875l-7.942,162.4a5.181,5.181,0,0,1-5.12,4.884H145.5a4.6,4.6,0,0,1-4.639-4.893Z" transform="translate(-133.815 -87.124)" fill="#fff"/>
      <path id="Path_7294" data-name="Path 7294" d="M176.021,167.982H165.537a1.66,1.66,0,0,1-1.678-1.747l.874-18.348a1.87,1.87,0,0,1,1.852-1.747H177.07a1.66,1.66,0,0,1,1.686,1.747l-.874,18.348A1.87,1.87,0,0,1,176.021,167.982Z" transform="translate(-136.721 -92.015)" fill="#b0bec5" opacity="0.3"/>
      <path id="Path_7295" data-name="Path 7295" d="M200.04,167.5H189.556a1.677,1.677,0,0,1-1.686-1.747l1.057-21.668a1.887,1.887,0,0,1,1.861-1.747h10.484a1.678,1.678,0,0,1,1.686,1.747L201.9,165.755a1.887,1.887,0,0,1-1.861,1.747Z" transform="translate(-139.754 -91.535)" fill="#b0bec5" opacity="0.3"/>
      <path id="Path_7296" data-name="Path 7296" d="M224.06,167.175H213.576a1.677,1.677,0,0,1-1.686-1.747l1.171-23.93a1.887,1.887,0,0,1,1.861-1.747h10.484a1.677,1.677,0,0,1,1.686,1.747l-1.127,23.9A1.887,1.887,0,0,1,224.06,167.175Z" transform="translate(-142.788 -91.208)" fill="#b0bec5" opacity="0.3"/>
      <path id="Path_7297" data-name="Path 7297" d="M248.092,166.878H237.607a1.669,1.669,0,0,1-1.678-1.747l1.267-25.984a1.887,1.887,0,0,1,1.861-1.747h10.484a1.678,1.678,0,0,1,1.686,1.747L249.97,165.1A1.87,1.87,0,0,1,248.092,166.878Z" transform="translate(-145.824 -90.911)" fill="#b0bec5" opacity="0.3"/>
      <path id="Path_7298" data-name="Path 7298" d="M272.11,165.733H261.626a1.677,1.677,0,0,1-1.686-1.747l1.66-33.908a1.878,1.878,0,0,1,1.861-1.747h10.484a1.678,1.678,0,0,1,1.686,1.747l-1.66,33.882a1.887,1.887,0,0,1-1.861,1.774Z" transform="translate(-148.857 -89.765)" fill="#b0bec5"/>
      <path id="Path_7299" data-name="Path 7299" d="M270.463,123.8l1-1.59a.568.568,0,0,0-.481-.874h-1.844a.568.568,0,0,0-.5.874l.874,1.59a.559.559,0,0,0,.952,0Z" transform="translate(-149.944 -88.882)" fill="#263238"/>
      <path id="Path_7300" data-name="Path 7300" d="M296.13,166.506H285.646a1.678,1.678,0,0,1-1.686-1.747l1.4-28.561a1.887,1.887,0,0,1,1.861-1.747H297.7a1.677,1.677,0,0,1,1.686,1.747l-1.415,28.535A1.878,1.878,0,0,1,296.13,166.506Z" transform="translate(-151.891 -90.538)" fill="#b0bec5" opacity="0.3"/>
      <path id="Path_7301" data-name="Path 7301" d="M281.833,177.493H164.05a.542.542,0,0,1-.55-.577h0a.62.62,0,0,1,.612-.577H281.885a.542.542,0,0,1,.55.577h0a.6.6,0,0,1-.6.577Z" transform="translate(-136.676 -95.829)" fill="#263238" opacity="0.1"/>
      <path id="Path_7302" data-name="Path 7302" d="M308.54,272.106,316.124,117.2a.577.577,0,0,1,.577-.55h.053a.515.515,0,0,1,.524.55L309.7,272.106a.594.594,0,0,1-.577.559h-.061a.533.533,0,0,1-.524-.559Z" transform="translate(-154.996 -88.29)" fill="#263238" opacity="0.1"/>
      <path id="Path_7303" data-name="Path 7303" d="M352.141,147.14a17.728,17.728,0,0,0,2.1,12.232l-5.19,3.233a23.668,23.668,0,0,1-2.787-16.242,25.931,25.931,0,0,1,24.105-21.082v5.959a19.518,19.518,0,0,0-18.225,15.9Z" transform="translate(-159.709 -89.38)" fill="#b0bec5"/>
      <path id="Path_7304" data-name="Path 7304" d="M396.706,140.285l-5.627,2.272A17.194,17.194,0,0,0,377.1,131.374a17.709,17.709,0,0,0-3.18-.149v-5.959a23.188,23.188,0,0,1,22.786,15.019Z" transform="translate(-163.253 -89.375)" fill="#b0bec5" opacity="0.3"/>
      <path id="Path_7305" data-name="Path 7305" d="M394.619,154.944c-2.411,13.228-15.2,22.655-28.343,20.9a22.847,22.847,0,0,1-16.766-11.061l5.19-3.2a17.186,17.186,0,0,0,12.651,8.353,19.448,19.448,0,0,0,21.388-15.726,17.91,17.91,0,0,0-.769-9.418l5.627-2.272A23.879,23.879,0,0,1,394.619,154.944Z" transform="translate(-160.17 -91.557)" fill="#263238"/>
      <path id="Path_7306" data-name="Path 7306" d="M350.288,128.985a.445.445,0,0,1-.323-.131l-3.87-4.08H332.8a.437.437,0,1,1,0-.874h13.481a.419.419,0,0,1,.314.14l4.01,4.211a.428.428,0,0,1-.314.734Z" transform="translate(-158.004 -89.206)" fill="#263238"/>
      <path id="Path_7307" data-name="Path 7307" d="M379.968,207.516a17.684,17.684,0,0,0-12.232-2.4l-.647-5.9a23.694,23.694,0,0,1,16.172,3.18c9.777,6.064,13.472,18.592,8.737,29.557l-5.461-2.132A17.7,17.7,0,0,0,379.968,207.516Z" transform="translate(-162.391 -98.68)" fill="#b0bec5" opacity="0.3"/>
      <path id="Path_7308" data-name="Path 7308" d="M368.27,252.008l.4-5.967a19.37,19.37,0,0,0,16.478-8.886,19,19,0,0,0,1.546-2.866l5.461,2.132a25.329,25.329,0,0,1-2.045,3.809A25.756,25.756,0,0,1,368.27,252.008Z" transform="translate(-162.54 -103.149)" fill="#263238"/>
      <path id="Path_7309" data-name="Path 7309" d="M353.056,244.115c-11.1-6.876-14.1-21.947-6.666-33.375a25.879,25.879,0,0,1,17.6-11.48l.647,5.9a19.483,19.483,0,0,0-13.289,8.658c-5.644,8.685-3.39,19.964,5.033,25.189a17.473,17.473,0,0,0,9.008,2.621l-.4,5.967a23.311,23.311,0,0,1-11.935-3.477Z" transform="translate(-159.26 -98.724)" fill="#b0bec5"/>
      <path id="Path_7310" data-name="Path 7310" d="M346.678,202.674a.455.455,0,0,1-.315-.14l-3.879-4.08h-13.3a.437.437,0,0,1,0-.874h13.49a.455.455,0,0,1,.315.14l4,4.211a.437.437,0,0,1,0,.62A.472.472,0,0,1,346.678,202.674Z" transform="translate(-157.548 -98.512)" fill="#263238"/>
      <path id="Path_7311" data-name="Path 7311" d="M335.052,279.41h-4.421a2.377,2.377,0,0,0-2.333,2.228l-.218,4.43A2.105,2.105,0,0,0,330.2,288.3h4.421a2.377,2.377,0,0,0,2.342-2.228l.218-4.43a2.114,2.114,0,0,0-2.132-2.228Z" transform="translate(-157.463 -108.848)" fill="#b0bec5"/>
      <path id="Path_7312" data-name="Path 7312" d="M363.431,279.41h-4.421a2.376,2.376,0,0,0-2.341,2.263l-.21,4.43a2.106,2.106,0,0,0,2.114,2.228h4.473a2.377,2.377,0,0,0,2.333-2.228l.219-4.43a2.106,2.106,0,0,0-2.167-2.263Z" transform="translate(-161.048 -108.847)" fill="#263238"/>
      <path id="Path_7313" data-name="Path 7313" d="M391.82,279.41h-4.43a2.376,2.376,0,0,0-2.333,2.228l-.218,4.43a2.106,2.106,0,0,0,2.114,2.228h4.43a2.368,2.368,0,0,0,2.333-2.254l.218-4.43a2.106,2.106,0,0,0-2.114-2.2Z" transform="translate(-164.632 -108.848)" fill="#b0bec5" opacity="0.3"/>
      <text id="_25.54_" data-name="25.54%" transform="translate(34.292 112.429) rotate(2.862)" fill="#263238" font-size="3" font-family="Arial-BoldMT, Arial" font-weight="700" letter-spacing="0em"><tspan x="0" y="0">25.54</tspan><tspan y="0" font-size="2">%</tspan></text>
      <path id="Path_7314" data-name="Path 7314" d="M215.686,230.2h-.1a.428.428,0,0,1-.323-.524c2.953-12.415,9.218-25.136,16.6-25.547,4.936-.28,7.75,3.844,11.009,8.606,2.359,3.434,5.024,7.322,8.929,10.257,2.691,2.018,5.434,2.542,8.16,1.564,6.072-2.193,11.882-12.075,15.167-25.783a.449.449,0,0,1,.874.21c-3.4,14.2-9.279,24.07-15.727,26.394-3.023,1.083-6.046.515-8.982-1.686-4.019-3.014-6.727-6.99-9.121-10.484-3.25-4.735-5.8-8.466-10.24-8.23-6.893.384-12.878,12.773-15.726,24.874a.437.437,0,0,1-.516.349Z" transform="translate(-143.212 -98.619)" fill="#b0bec5"/>
      <path id="Path_7315" data-name="Path 7315" d="M272.734,235.233H166.886a6.623,6.623,0,0,1-6.658-6.99l1.546-30.824a7.4,7.4,0,0,1,7.3-6.99h105.8a6.623,6.623,0,0,1,6.658,6.99l-1.5,30.815a7.4,7.4,0,0,1-7.3,7Zm-103.7-43.9a6.518,6.518,0,0,0-6.43,6.116l-1.5,30.815a5.74,5.74,0,0,0,5.784,6.116H272.734a6.518,6.518,0,0,0,6.43-6.116l1.512-30.815a5.758,5.758,0,0,0-5.793-6.116Z" transform="translate(-136.262 -97.609)" fill="#263238" opacity="0.1"/>
      <path id="Path_7316" data-name="Path 7316" d="M191.31,199.882H174.2a1.913,1.913,0,0,1-1.913-2.018,2.1,2.1,0,0,1,2.071-1.983h17.1a1.913,1.913,0,0,1,1.922,2.018A2.106,2.106,0,0,1,191.31,199.882Zm-16.95-3.128a1.223,1.223,0,0,0-1.2,1.144,1.031,1.031,0,0,0,.28.786,1.075,1.075,0,0,0,.76.323H191.31a1.232,1.232,0,0,0,1.2-1.145,1.04,1.04,0,0,0-.288-.786,1.013,1.013,0,0,0-.76-.323Z" transform="translate(-137.786 -98.297)" fill="#263238" opacity="0.1"/>
      <path id="Path_7317" data-name="Path 7317" d="M175.627,230.2h-4.438l-.218,4.438h4.438Z" transform="translate(-137.62 -102.632)" fill="#b0bec5"/>
      <path id="Path_7318" data-name="Path 7318" d="M180.144,292.985h-9.051a2.866,2.866,0,0,1-2.883-3.023l.446-9.06a3.224,3.224,0,0,1,3.172-3.032h9.06a2.857,2.857,0,0,1,2.874,3.032l-.437,9.06A3.233,3.233,0,0,1,180.144,292.985Z" transform="translate(-137.27 -108.653)" fill="#b0bec5" opacity="0.3"/>
      <path id="Path_7319" data-name="Path 7319" d="M217.882,288.752H194.528a2.481,2.481,0,0,1-2.5-2.621,2.752,2.752,0,0,1,2.717-2.621h23.345a2.5,2.5,0,0,1,2.507,2.621A2.752,2.752,0,0,1,217.882,288.752Zm-23.135-4.368a1.887,1.887,0,0,0-1.852,1.747,1.669,1.669,0,0,0,.446,1.214,1.634,1.634,0,0,0,1.188.5h23.354a1.861,1.861,0,0,0,1.843-1.747,1.581,1.581,0,0,0-.446-1.215,1.617,1.617,0,0,0-1.188-.507Z" transform="translate(-140.279 -109.365)" fill="#263238" opacity="0.1"/>
      <path id="Path_7320" data-name="Path 7320" d="M176.939,288.825h0a.437.437,0,0,1-.419-.454l.192-3.87a.411.411,0,0,1,.454-.411.437.437,0,0,1,.419.454l-.192,3.87A.437.437,0,0,1,176.939,288.825Z" transform="translate(-138.321 -109.438)" fill="#b0bec5"/>
      <path id="Path_7321" data-name="Path 7321" d="M175.026,286.2a.454.454,0,0,1-.315-.14.437.437,0,0,1,0-.62l1.87-1.747a.445.445,0,0,1,.314-.122.472.472,0,0,1,.306.14l1.695,1.747a.439.439,0,0,1-.638.6l-1.389-1.468-1.555,1.485A.471.471,0,0,1,175.026,286.2Z" transform="translate(-138.076 -109.373)" fill="#b0bec5"/>
      <text id="_323_078.00" data-name="$323,078.00" transform="translate(32.25 154.045) rotate(2.862)" fill="#263238" font-size="4" font-family="Arial-BoldMT, Arial" font-weight="700"><tspan x="0" y="0">$323,078.00</tspan></text>
      <path id="Path_7322" data-name="Path 7322" d="M248.4,277.87h-9.052a3.233,3.233,0,0,0-3.18,3.032l-.437,9.06a2.857,2.857,0,0,0,2.874,3.023h9.06a3.224,3.224,0,0,0,3.171-3.023l.446-9.06a2.866,2.866,0,0,0-2.883-3.032Z" transform="translate(-145.798 -108.653)" fill="#263238" opacity="0.4"/>
      <path id="Path_7323" data-name="Path 7323" d="M285.392,288.752H262.047a2.5,2.5,0,0,1-2.508-2.621,2.752,2.752,0,0,1,2.717-2.621h23.354a2.507,2.507,0,0,1,2.508,2.621A2.761,2.761,0,0,1,285.392,288.752Zm-23.135-4.368a1.878,1.878,0,0,0-1.844,1.747,1.669,1.669,0,0,0,.446,1.214,1.625,1.625,0,0,0,1.188.5h23.345a1.87,1.87,0,0,0,1.852-1.747,1.625,1.625,0,0,0-1.634-1.747Z" transform="translate(-148.806 -109.365)" fill="#263238" opacity="0.1"/>
      <path id="Path_7324" data-name="Path 7324" d="M244.469,288.314h0a.437.437,0,0,1-.419-.454l.192-3.87a.419.419,0,0,1,.454-.419.446.446,0,0,1,.419.463l-.192,3.862a.437.437,0,0,1-.454.419Z" transform="translate(-146.85 -109.373)" fill="#fff"/>
      <path id="Path_7325" data-name="Path 7325" d="M244.2,289.128h0A.463.463,0,0,1,243.9,289l-1.695-1.747a.439.439,0,1,1,.62-.62l1.389,1.468,1.555-1.485a.437.437,0,0,1,.62,0,.428.428,0,0,1,0,.612l-1.87,1.791A.463.463,0,0,1,244.2,289.128Z" transform="translate(-146.6 -109.741)" fill="#fff"/>
    </g>
    <g id="freepik--Character--inject-265" transform="translate(80.727 103.857)">
      <path id="Path_7326" data-name="Path 7326" d="M110.7,113.952c-3.495,4.552-4.141,10.825-3.94,14.031.245,3.975-4.954,4.159-3.495,11.078,1.249,5.994-2.394,7.863-2.307,12.555.192,10.877,9.951,14.093,28.15,10.877s7.269-19.833,9.7-26.377.507-21.886-4.368-21.2C134.973,103.371,117.717,104.874,110.7,113.952Z" transform="translate(-86.392 -106.7)" fill="#263238"/>
      <path id="Path_7327" data-name="Path 7327" d="M115.576,170.176c-.122,2.21-.358,4.2-.647,6.291s-.664,4.115-1.127,6.16-.987,4.106-1.634,6.116a49.523,49.523,0,0,1-2.385,6.116l-.2.437a4.368,4.368,0,0,1-5.574,2.237,33.977,33.977,0,0,1-3.495-1.677c-1.11-.594-2.132-1.258-3.163-1.9s-2-1.372-2.962-2.106a36.5,36.5,0,0,1-2.8-2.341,2.673,2.673,0,0,1,2.385-4.473h.087c1.118.253,2.245.585,3.346.874l3.276.961,3.189.935c1.031.3,2.062.55,2.979.751l-5.784,2.674c.568-1.625,1.031-3.364,1.468-5.146s.76-3.626,1.083-5.478.594-3.731.874-5.618.472-3.827.673-5.583v-.1a5.26,5.26,0,0,1,10.484.874Z" transform="translate(-85.116 -113.998)" fill="#b55b52"/>
      <path id="Path_7328" data-name="Path 7328" d="M90.065,184.423l-2.149-.76a2.106,2.106,0,0,0-2.7,1.319l-.821,2.455a2.1,2.1,0,0,0,1.022,2.525l2.691,1.415s4.368,3.355,6.561,1.3l1.2-3.495-3.241-3.154A7.121,7.121,0,0,0,90.065,184.423Z" transform="translate(-84.286 -116.405)" fill="#b55b52"/>
      <path id="Path_7329" data-name="Path 7329" d="M116.116,157.24c-6.439,1.214-7.8,3.844-12.546,13.621,1.433,6.43,13.656,12.083,13.656,12.083S126.732,165.558,116.116,157.24Z" transform="translate(-86.722 -113.083)" fill="#263238"/>
      <path id="Path_7330" data-name="Path 7330" d="M130,406.776c4.036-5.382,4.368-6.867,6.911-9.7a27.129,27.129,0,0,1,4.718-4.325c1.695-1.372.682-3.355-.874-4.194-1.214-.647-2.551-1.223-4.019-2.079l-6.658,5.434c.655,3.084-.716,9.514-3.495,13.8C124.55,408.777,128.386,408.925,130,406.776Z" transform="translate(-89.555 -142.038)" fill="#263238"/>
      <path id="Path_7331" data-name="Path 7331" d="M106.451,213.27s-6.2,43.527-10.825,73.224a34,34,0,0,0,1.643,17.194c7.907,21.065,28.4,66.864,28.4,66.864.944.926,6.614-4.465,7.164-5.95,0,0-7.086-57.882-18.1-70.857,22.48-46.376,22.131-80.476,22.131-80.476Z" transform="translate(-85.662 -120.16)" fill="#b0bec5"/>
      <g id="Group_8300" data-name="Group 8300" transform="translate(28.311 94.403)" opacity="0.2">
        <path id="Path_7332" data-name="Path 7332" d="M139.906,214.75l-16.6,1.162s-3.215,47.809-3.905,74.613C137.826,251.087,139.713,221.18,139.906,214.75Z" transform="translate(-117.032 -214.75)"/>
        <path id="Path_7333" data-name="Path 7333" d="M118.962,307.76c-.227,13.743-.917,31.628-2.272,48.149,4.2,9.672,7.986,18.225,10.056,22.873,1.992-5.758,4.211-12.634,6.212-19.92C130.171,342.044,125.287,317.79,118.962,307.76Z" transform="translate(-116.69 -226.498)"/>
      </g>
      <path id="Path_7334" data-name="Path 7334" d="M126.706,389.587c.507.743,1.389,2.079,2,3.093a.716.716,0,0,0,1.022.166,62.806,62.806,0,0,0,7.863-6.649.8.8,0,0,0,.2-.874l-1.337-3.04a.717.717,0,0,0-1.118-.21l-8.387,6.474A.8.8,0,0,0,126.706,389.587Z" transform="translate(-89.631 -141.458)" fill="#b0bec5"/>
      <path id="Path_7335" data-name="Path 7335" d="M126.706,389.587c.507.743,1.389,2.079,2,3.093a.716.716,0,0,0,1.022.166,62.806,62.806,0,0,0,7.863-6.649.8.8,0,0,0,.2-.874l-1.337-3.04a.717.717,0,0,0-1.118-.21l-8.387,6.474A.8.8,0,0,0,126.706,389.587Z" transform="translate(-89.631 -141.458)" fill="#fff" opacity="0.3"/>
      <path id="Path_7336" data-name="Path 7336" d="M103.752,411.238c6.343,1.258,8.789,1.651,12.406,2.245,3.093.5,3.67,1.013,6.116,1.45,2.062.358,2.8-1.529,3.093-3.818.157-1.145.437-3.967.76-5.8l-9.829-.524c-2.342,2.132-8.588,2.831-12.354,2.621C100.371,407.131,101.227,410.731,103.752,411.238Z" transform="translate(-86.467 -144.35)" fill="#263238"/>
      <path id="Path_7337" data-name="Path 7337" d="M118.4,213.27s3.259,55.916,3.862,81.253c.62,26.6.114,68.148-4.709,85.849,1.319.874,7.435.874,10.624-.052,0,0,19.859-56.353,12.38-84.617,15.054-62.259,6.116-76.964,3.608-82.407Z" transform="translate(-88.488 -120.16)" fill="#b0bec5"/>
      <path id="Path_7338" data-name="Path 7338" d="M118.286,400.265a28.623,28.623,0,0,1-1.442,3.495.611.611,0,0,0,.358.935c3.4.874,8.833.55,10.572.411a1,1,0,0,0,.8-.55l1.564-3.268a.6.6,0,0,0-.489-.926l-10.4-.751A1,1,0,0,0,118.286,400.265Z" transform="translate(-88.385 -143.696)" fill="#b0bec5"/>
      <path id="Path_7339" data-name="Path 7339" d="M118.286,400.265a28.623,28.623,0,0,1-1.442,3.495.611.611,0,0,0,.358.935c3.4.874,8.833.55,10.572.411a1,1,0,0,0,.8-.55l1.564-3.268a.6.6,0,0,0-.489-.926l-10.4-.751A1,1,0,0,0,118.286,400.265Z" transform="translate(-88.385 -143.696)" fill="#fff" opacity="0.3"/>
      <path id="Path_7340" data-name="Path 7340" d="M142.43,156.621c-1.389-.14-2.848-.262-4.368-.332a111.339,111.339,0,0,0-15.84,0c-1.747.157-3.495.376-5.242.612a13.105,13.105,0,0,0-11.2,12.363c-.1,3.434.638,8.615,1.354,16.784.944,10.65-1.651,16.067.62,19.99,4.447,4.229,24.865,2.114,34.887,0h0c3.014-3.879-2.883-13.979,6.71-38.844C151.307,162.222,147.6,157.145,142.43,156.621Z" transform="translate(-86.999 -112.928)" fill="#263238"/>
      <path id="Path_7341" data-name="Path 7341" d="M123.831,165.868c-.184.655-.559,1.11-.874,1.031s-.376-.673-.192-1.319.568-1.11.874-1.031S124.023,165.221,123.831,165.868Z" transform="translate(-89.133 -114.005)" fill="#fff"/>
      <path id="Path_7342" data-name="Path 7342" d="M122.382,172.045c-.087.673-.393,1.188-.69,1.145s-.463-.6-.384-1.276.393-1.179.681-1.145S122.46,171.373,122.382,172.045Z" transform="translate(-88.96 -114.792)" fill="#fff"/>
      <path id="Path_7343" data-name="Path 7343" d="M136.864,136.54c-.157,5.242-.83,13.892,2.481,17.29,0,0-4.832-.725-15.08,5.618-2.971-4.264-.769-5.618-.769-5.618a5.094,5.094,0,0,0,3.879-7.2Z" transform="translate(-89.139 -110.469)" fill="#b55b52"/>
      <path id="Path_7344" data-name="Path 7344" d="M127,160.421c3.381.481,4.438,5.574,4.438,5.574s8.108-5.731,10.677-9.777a32.832,32.832,0,0,1-2.962-1.878S128.931,158.473,127,160.421Z" transform="translate(-89.681 -112.717)" fill="#fff"/>
      <path id="Path_7345" data-name="Path 7345" d="M122.682,160.041s-2.682.585-4.028,4.316c-.769-7.435,2.752-8.125,2.752-8.125a4.368,4.368,0,0,1,3.058-.437A3.608,3.608,0,0,0,122.682,160.041Z" transform="translate(-88.613 -112.888)" fill="#fff"/>
      <path id="Path_7346" data-name="Path 7346" d="M131.606,144.426l-1.337.813L128.05,147.6a5.024,5.024,0,0,1,.21,3.836c2.534-.979,5.085-2.962,5.758-5.1h0a1.643,1.643,0,0,0-2.411-1.9Z" transform="translate(-89.814 -111.435)" opacity="0.2"/>
      <path id="Path_7347" data-name="Path 7347" d="M133.861,121.249c2.438,8.012,3.635,11.358,1.3,17.02-3.495,8.536-13.577,10.24-18.286,3.233-4.229-6.317-7.505-18.348-1.241-24.691a10.72,10.72,0,0,1,18.225,4.438Z" transform="translate(-87.805 -107.54)" fill="#b55b52"/>
      <path id="Path_7348" data-name="Path 7348" d="M127.181,116.631c-2.053,5.469,2.813,12.275,9.777,11.751,3.241-6.194,1.276-10.93-.454-12.861S129.532,113.258,127.181,116.631Z" transform="translate(-89.644 -107.631)" fill="#263238" opacity="0.4"/>
      <path id="Path_7349" data-name="Path 7349" d="M134.453,116.28c-.935,6.631-22.463,2.525-23.633,9.174C110.768,116.77,120.474,105.167,134.453,116.28Z" transform="translate(-87.637 -107.334)" fill="#263238"/>
      <path id="Path_7350" data-name="Path 7350" d="M124.668,131.616c.227.664.087,1.345-.323,1.52s-.935-.218-1.171-.874-.087-1.345.323-1.529S124.432,130.961,124.668,131.616Z" transform="translate(-89.184 -109.73)" fill="#263238"/>
      <path id="Path_7351" data-name="Path 7351" d="M115.429,134.508c.236.664.1,1.346-.315,1.52s-.935-.218-1.171-.874-.087-1.346.323-1.52S115.2,133.844,115.429,134.508Z" transform="translate(-88.018 -110.096)" fill="#263238"/>
      <path id="Path_7352" data-name="Path 7352" d="M114.309,133.58l-1.669.192S113.828,134.681,114.309,133.58Z" transform="translate(-87.867 -110.095)" fill="#263238"/>
      <path id="Path_7353" data-name="Path 7353" d="M118.141,134.21a20.592,20.592,0,0,1-.751,5.2,2.8,2.8,0,0,0,2.4-.524Z" transform="translate(-88.467 -110.174)" fill="#a02724"/>
      <path id="Path_7354" data-name="Path 7354" d="M122.346,141.579a6.6,6.6,0,0,1-1.11.35.183.183,0,0,1-.227-.157.218.218,0,0,1,.166-.245,5.845,5.845,0,0,0,3.984-3.119.2.2,0,1,1,.367.149A6.116,6.116,0,0,1,122.346,141.579Z" transform="translate(-88.924 -110.685)" fill="#263238"/>
      <path id="Path_7355" data-name="Path 7355" d="M142.034,129.731a5.74,5.74,0,0,1-1.643,4.368c-1.45,1.345-3.215-.2-3.687-2.438-.419-2.01-.175-5.137,1.747-5.592S141.982,127.573,142.034,129.731Z" transform="translate(-90.885 -109.138)" fill="#b55b52"/>
      <path id="Path_7356" data-name="Path 7356" d="M124.186,127.155a.367.367,0,0,1-.3-.07,3.006,3.006,0,0,0-2.813-.507.367.367,0,0,1-.5-.236.446.446,0,0,1,.253-.542,3.774,3.774,0,0,1,3.556.6.419.419,0,0,1,.061.585A.472.472,0,0,1,124.186,127.155Z" transform="translate(-88.867 -109.087)" fill="#263238"/>
      <path id="Path_7357" data-name="Path 7357" d="M111.37,131.618a.393.393,0,0,1-.3,0,.4.4,0,0,1-.227-.524,4.369,4.369,0,0,1,2.674-2.726.384.384,0,0,1,.472.306.446.446,0,0,1-.306.507,3.407,3.407,0,0,0-2.1,2.175A.437.437,0,0,1,111.37,131.618Z" transform="translate(-87.637 -109.435)" fill="#263238"/>
      <path id="Path_7358" data-name="Path 7358" d="M123.539,130.7l-1.669.184S123.084,131.836,123.539,130.7Z" transform="translate(-89.033 -109.731)" fill="#263238"/>
      <path id="Path_7359" data-name="Path 7359" d="M149.282,177.052v1.87a15.01,15.01,0,0,1-.14,1.66,31.454,31.454,0,0,1-.524,3.25,30.58,30.58,0,0,1-2.071,6.36,25.021,25.021,0,0,1-3.687,5.915,21.982,21.982,0,0,1-5.417,4.692l-.315.192a3.5,3.5,0,0,1-.874.367,8.2,8.2,0,0,1-4.543,0,13.7,13.7,0,0,1-2.831-1.153,24.785,24.785,0,0,1-4.071-2.857,37.918,37.918,0,0,1-3.285-3.189,39.044,39.044,0,0,1-2.857-3.495,2.621,2.621,0,0,1,3.495-3.818l.1.061,3.495,2.053c1.162.664,2.324,1.319,3.495,1.887a21.84,21.84,0,0,0,3.241,1.363,3.766,3.766,0,0,0,1.162.218c.253,0,.236-.157-.367,0l-1.145.559a14.076,14.076,0,0,0,2.8-3,13.909,13.909,0,0,0,1.092-1.817,16.666,16.666,0,0,0,.917-2,26.384,26.384,0,0,0,1.267-4.421c.157-.769.271-1.546.376-2.324.044-.393.087-.778.122-1.162l.07-.97v-.463a5.244,5.244,0,1,1,10.484.3Z" transform="translate(-88.557 -114.914)" fill="#b55b52"/>
      <path id="Path_7360" data-name="Path 7360" d="M112.712,195.645H93.788a3.827,3.827,0,0,1-3.739-2.778l-2.315-12c-.3-1.52.874-2.752,2.674-2.752h18.915a3.809,3.809,0,0,1,3.739,2.752l2.324,12C115.674,194.413,114.477,195.645,112.712,195.645Z" transform="translate(-84.716 -115.719)" fill="#b0bec5"/>
      <path id="Path_7361" data-name="Path 7361" d="M112.256,195.041H93.908A2.979,2.979,0,0,1,91,192.962l-2.263-11.681a1.363,1.363,0,0,1,.28-1.145,2.035,2.035,0,0,1,1.6-.647h18.348a3,3,0,0,1,2.909,2.071l2.254,11.681a1.328,1.328,0,0,1-.271,1.145A2.053,2.053,0,0,1,112.256,195.041ZM90.571,179.708a1.835,1.835,0,0,0-1.433.568,1.153,1.153,0,0,0-.227.97l2.254,11.673a2.761,2.761,0,0,0,2.7,1.87h18.348a1.791,1.791,0,0,0,1.424-.577,1.11,1.11,0,0,0,.236-.961L111.679,181.6a2.752,2.752,0,0,0-2.691-1.9Z" transform="translate(-84.844 -115.893)" fill="#fff"/>
      <path id="Path_7362" data-name="Path 7362" d="M116.008,184.99l-2.219-.559a2.106,2.106,0,0,0-2.56,1.573l-.577,2.525a2.1,2.1,0,0,0,1.258,2.411l2.813,1.153s4.709,2.909,6.666.664l.874-3.6-3.495-2.831A6.989,6.989,0,0,0,116.008,184.99Z" transform="translate(-87.61 -116.51)" fill="#b55b52"/>
      <path id="Path_7363" data-name="Path 7363" d="M146.787,156.76c7.662.454,10.021,8.449,7.47,22.987-1.241,5.461-16.548-2-16.548-2S137.176,162.212,146.787,156.76Z" transform="translate(-91.033 -113.023)" fill="#263238"/>
    </g>
    <g id="freepik--Plant--inject-265" transform="translate(327.441 264.057)">
      <path id="Path_7364" data-name="Path 7364" d="M395.8,328.852c-2.787-17.474,4.849-40.391,14.53-38.7C418.346,291.545,397.456,323.514,395.8,328.852Z" transform="translate(-370.272 -290.059)" fill="#b0bec5"/>
      <path id="Path_7365" data-name="Path 7365" d="M391.041,338.856c9.1-12.939,3.495-39.535-6.116-40.137S390.255,332.347,391.041,338.856Z" transform="translate(-368.566 -291.152)" fill="#263238"/>
      <path id="Path_7366" data-name="Path 7366" d="M392.9,347.669c-1.04-27.958,15.989-42.016,23.59-38.678C424.313,312.432,398.853,332.2,392.9,347.669Z" transform="translate(-369.974 -292.389)" fill="#b0bec5"/>
      <path id="Path_7367" data-name="Path 7367" d="M387.887,366.412c9.1-19.684,1.3-50.447-13.175-47.118C362.707,322.055,385.738,358.13,387.887,366.412Z" transform="translate(-367.247 -293.72)" fill="#b0bec5"/>
      <path id="Path_7368" data-name="Path 7368" d="M387.926,374.095c-1-18.872-6.727-42.933-18.487-40.705C358.221,335.486,384.432,357.59,387.926,374.095Z" transform="translate(-366.666 -295.514)" fill="#263238"/>
      <path id="Path_7369" data-name="Path 7369" d="M387.7,385.343c2.883-27.845,26.718-43.388,26.473-32.825C413.919,363.8,395.712,371.146,387.7,385.343Z" transform="translate(-369.323 -297.528)" fill="#b0bec5"/>
      <path id="Path_7370" data-name="Path 7370" d="M388.275,380.786c3.346-9.96-4.517-23.485-12.773-20.593C368.661,362.6,386.126,377.151,388.275,380.786Z" transform="translate(-367.582 -298.867)" fill="#b0bec5"/>
      <path id="Path_7371" data-name="Path 7371" d="M390.534,372.144c-3.6-21.353,14.8-58.1,31.4-50.2C438.063,329.622,398.4,347.611,390.534,372.144Z" transform="translate(-369.623 -293.948)" fill="#263238"/>
      <path id="Path_7372" data-name="Path 7372" d="M396.393,411.825h-15.9a6.474,6.474,0,0,1-6.2-4.578,57.353,57.353,0,0,1-2.813-19.7,36.774,36.774,0,0,1,.874-6.256,1.861,1.861,0,0,1,1.8-1.459H402.78a1.843,1.843,0,0,1,1.791,1.459,36.769,36.769,0,0,1,.874,6.256,57.562,57.562,0,0,1-2.8,19.7,6.492,6.492,0,0,1-6.247,4.578Z" transform="translate(-367.27 -301.398)" fill="#b0bec5"/>
      <path id="Path_7373" data-name="Path 7373" d="M405.4,387.545H371.48a36.763,36.763,0,0,1,.874-6.256,1.861,1.861,0,0,1,1.8-1.459h28.631a1.844,1.844,0,0,1,1.791,1.459,36.778,36.778,0,0,1,.821,6.256Z" transform="translate(-367.274 -301.398)" fill="#fff" opacity="0.5"/>
    </g>
  </g>
</svg>
