<svg xmlns="http://www.w3.org/2000/svg" width="175.965" height="36.909" viewBox="0 0 175.965 36.909">
  <g id="exalca_white_logo" transform="translate(-2649.974 -4378.475)">
    <g id="Group_31" data-name="Group 31" transform="translate(2649.974 4378.475)">
      <path id="Exclusion_16" data-name="Exclusion 16" d="M14.655,28.021h0a28.911,28.911,0,0,1-5.8-.523A11.947,11.947,0,0,1,3.987,25.48,9.244,9.244,0,0,1,1,21.151,18.334,18.334,0,0,1,.034,15.92a29.657,29.657,0,0,1,.39-6.378A13.554,13.554,0,0,1,3.029,4.715,12.694,12.694,0,0,1,7.075,1.47,14.493,14.493,0,0,1,13.681,0a20.8,20.8,0,0,1,2.76.192c4.013.54,6.933,2.1,8.677,4.638A10.082,10.082,0,0,1,26.54,7.973a12.863,12.863,0,0,1,.411,2.963A13.359,13.359,0,0,1,26.693,14H7.178a11.2,11.2,0,0,0,.211,3.171,8.737,8.737,0,0,0,1.041,2.71,6.734,6.734,0,0,0,2.355,2.344,10.272,10.272,0,0,0,4.959.937,30.623,30.623,0,0,0,4.714-.4,24.759,24.759,0,0,0,3.834-.888l-.828,5.333h0A52.566,52.566,0,0,1,14.655,28.021ZM14.249,4.586a6.737,6.737,0,0,0-3.684.993A6.488,6.488,0,0,0,8.489,7.765a8.874,8.874,0,0,0-1.123,3.179H20a7.55,7.55,0,0,0-.111-1.668A6.08,6.08,0,0,0,18.471,6.2a5.482,5.482,0,0,0-4.2-1.609Z" transform="translate(0 8.742)" fill="#fff"/>
      <path id="Path_289" data-name="Path 289" d="M2644.047,4771.282l11.1-14-8.748-12.925h8.748l4.647,7.376,5.679-7.376h8.128l-10.01,12.925,9.51,14h-8.543l-5.76-8.448-6.423,8.448Z" transform="translate(-2617.091 -4734.989)" fill="#fff"/>
      <path id="Path_290" data-name="Path 290" d="M2728.33,4766.6c-.171.116-1.37,4.6-1.37,4.6s-7.961.894-11.492-1.455-4.658-9.958,2.4-12.854,13.422-2.525,13.559-6.287-4.96-3.051-4.96-3.051a38.2,38.2,0,0,0-10.344,2.181c.416-2.934.8-4.935.8-4.935s14.115-2.893,18.851-.359,2.89,6.712,2.885,13.095-.529,13.225-.529,13.225h-7.486l.783-13.868a26.54,26.54,0,0,1-6.69,2.387c-2.426.455-5.9,2.225-4.768,6.395C2721.822,4768.25,2725.7,4767.231,2728.33,4766.6Z" transform="translate(-2654.928 -4734.463)" fill="#fff"/>
      <path id="Path_293" data-name="Path 293" d="M2728.33,4766.6c-.171.116-1.37,4.6-1.37,4.6s-7.961.894-11.492-1.455-4.658-9.958,2.4-12.854,13.422-2.525,13.559-6.287-4.96-3.051-4.96-3.051a38.2,38.2,0,0,0-10.344,2.181c.416-2.934.8-4.935.8-4.935s14.115-2.893,18.851-.359,2.89,6.712,2.885,13.095-.529,13.225-.529,13.225h-7.486l.783-13.868a26.54,26.54,0,0,1-6.69,2.387c-2.426.455-5.9,2.225-4.768,6.395C2721.822,4768.25,2725.7,4767.231,2728.33,4766.6Z" transform="translate(-2586.274 -4734.463)" fill="#fff"/>
      <path id="Path_291" data-name="Path 291" d="M2782.8,4759.768h7.623s-.062-18.319,1.473-36.293a66.859,66.859,0,0,1-8,0Z" transform="translate(-2693.583 -4723.475)" fill="#fff"/>
      <path id="Path_292" data-name="Path 292" d="M2831.728,4764.8l-.634,5.541s-10.719,2.672-16.738-1.461-4.924-13.295-4.877-13.554,1.7-7.778,7.253-10.68,15.465-.431,15.465-.431v5.865s-5.64-2.093-9.8-.908c-4.983,1.2-9.127,12.272-1.941,15.627C2824.79,4766.937,2831.728,4764.8,2831.728,4764.8Z" transform="translate(-2708.232 -4734.367)" fill="#fff"/>
    </g>
    <path id="iconfinder_registered_1608810" d="M3.7,2.494a.446.446,0,0,0-.213-.429A.946.946,0,0,0,3.069,2H2.632V3h.575a.482.482,0,0,0,.362-.131A.512.512,0,0,0,3.7,2.494ZM3.881,3.5l.727,1.323a.107.107,0,0,1,0,.11.1.1,0,0,1-.1.057H3.97a.1.1,0,0,1-.1-.06L3.182,3.64h-.55V4.881a.109.109,0,0,1-.114.114H2.043a.109.109,0,0,1-.114-.114V1.476a.109.109,0,0,1,.114-.114H3.086a1.989,1.989,0,0,1,.674.085.921.921,0,0,1,.475.387,1.175,1.175,0,0,1,.174.639,1.151,1.151,0,0,1-.151.587.953.953,0,0,1-.41.388Q3.87,3.484,3.881,3.5ZM3.178.568A2.541,2.541,0,0,0,2.164.775,2.578,2.578,0,0,0,.775,2.164a2.584,2.584,0,0,0,0,2.029A2.578,2.578,0,0,0,2.164,5.582a2.584,2.584,0,0,0,2.029,0A2.578,2.578,0,0,0,5.582,4.193a2.584,2.584,0,0,0,0-2.029A2.578,2.578,0,0,0,4.193.775,2.541,2.541,0,0,0,3.178.568ZM6.357,3.178a3.107,3.107,0,0,1-.252,1.235A3.123,3.123,0,0,1,4.413,6.105a3.151,3.151,0,0,1-2.469,0A3.123,3.123,0,0,1,.252,4.413a3.151,3.151,0,0,1,0-2.469A3.123,3.123,0,0,1,1.944.252a3.151,3.151,0,0,1,2.469,0A3.123,3.123,0,0,1,6.105,1.944,3.107,3.107,0,0,1,6.357,3.178Z" transform="translate(2810.849 4378.985)" fill="#fff"/>
    <g id="Group_30" data-name="Group 30" transform="translate(2806.027 4388.003)">
      <rect id="Rectangle_47" data-name="Rectangle 47" width="6.378" height="6.378" transform="translate(0 0)" fill="#fff"/>
      <rect id="Rectangle_49" data-name="Rectangle 49" width="6.378" height="6.378" transform="translate(6.358 6.378)" fill="#fff"/>
      <rect id="Rectangle_51" data-name="Rectangle 51" width="6.378" height="6.378" transform="translate(13.534 9.567)" fill="#fff"/>
      <rect id="Rectangle_48" data-name="Rectangle 48" width="6.378" height="6.38" transform="translate(0 19.932)" fill="#fff"/>
      <rect id="Rectangle_50" data-name="Rectangle 50" width="6.378" height="6.378" transform="translate(6.358 13.554)" fill="#fff"/>
    </g>
  </g>
</svg>
