<svg xmlns="http://www.w3.org/2000/svg" xmlns:xlink="http://www.w3.org/1999/xlink" width="232.733" height="48.817" viewBox="0 0 232.733 48.817">
  <defs>
    <linearGradient id="linear-gradient" x1="0.5" x2="0.5" y2="1" gradientUnits="objectBoundingBox">
      <stop offset="0" stop-color="#171891"/>
      <stop offset="1" stop-color="#4fa94e"/>
    </linearGradient>
  </defs>
  <g id="Exalca_logo" transform="translate(-2649.974 -4378.475)">
    <g id="Group_31" data-name="Group 31" transform="translate(2649.974 4378.475)">
      <path id="Exclusion_16" data-name="Exclusion 16" d="M19.383,37.061h0a38.238,38.238,0,0,1-7.674-.691A15.8,15.8,0,0,1,5.273,33.7a12.226,12.226,0,0,1-3.955-5.725A24.249,24.249,0,0,1,.045,21.056,39.225,39.225,0,0,1,.561,12.62,17.927,17.927,0,0,1,4.006,6.237,16.789,16.789,0,0,1,9.358,1.944,19.169,19.169,0,0,1,18.095,0a27.508,27.508,0,0,1,3.65.254c5.308.714,9.169,2.778,11.477,6.134A13.335,13.335,0,0,1,35.1,10.546a17.013,17.013,0,0,1,.543,3.919,17.669,17.669,0,0,1-.341,4.056H9.494a14.808,14.808,0,0,0,.279,4.194A11.555,11.555,0,0,0,11.15,26.3a8.907,8.907,0,0,0,3.115,3.1c1.371.811,3.639,1.239,6.559,1.239a40.5,40.5,0,0,0,6.235-.527,32.747,32.747,0,0,0,5.071-1.175l-1.095,7.053h0A69.524,69.524,0,0,1,19.383,37.061ZM18.846,6.066A8.911,8.911,0,0,0,13.974,7.38a8.581,8.581,0,0,0-2.746,2.891,11.737,11.737,0,0,0-1.486,4.2h16.71a9.985,9.985,0,0,0-.146-2.206A8.041,8.041,0,0,0,24.43,8.194a7.25,7.25,0,0,0-5.555-2.128Z" transform="translate(0 11.562)" fill="#26009c"/>
      <path id="Path_289" data-name="Path 289" d="M2644.046,4779.966l14.679-18.513-11.57-17.093h11.57l6.146,9.755,7.511-9.755h10.751l-13.24,17.093,12.578,18.513h-11.3l-7.619-11.173-8.5,11.173Z" transform="translate(-2608.395 -4731.965)" fill="#26009c"/>
      <path id="Path_290" data-name="Path 290" d="M2733.378,4774.088c-.227.152-1.812,6.086-1.812,6.086s-10.529,1.182-15.2-1.925-6.161-13.171,3.174-17,17.751-3.34,17.933-8.314-6.56-4.037-6.56-4.037a50.5,50.5,0,0,0-13.681,2.882c.55-3.878,1.059-6.524,1.059-6.524s18.668-3.826,24.932-.477,3.822,8.879,3.816,17.32-.7,17.491-.7,17.491h-9.9l1.035-18.342a35.1,35.1,0,0,1-8.848,3.156c-3.209.6-7.807,2.943-6.306,8.458C2724.77,4776.264,2729.9,4774.918,2733.378,4774.088Z" transform="translate(-2636.296 -4731.578)" fill="#26009c"/>
      <path id="Path_293" data-name="Path 293" d="M2733.378,4774.088c-.227.152-1.812,6.086-1.812,6.086s-10.529,1.182-15.2-1.925-6.161-13.171,3.174-17,17.751-3.34,17.933-8.314-6.56-4.037-6.56-4.037a50.5,50.5,0,0,0-13.681,2.882c.55-3.878,1.059-6.524,1.059-6.524s18.668-3.826,24.932-.477,3.822,8.879,3.816,17.32-.7,17.491-.7,17.491h-9.9l1.035-18.342a35.1,35.1,0,0,1-8.848,3.156c-3.209.6-7.807,2.943-6.306,8.458C2724.77,4776.264,2729.9,4774.918,2733.378,4774.088Z" transform="translate(-2545.493 -4731.578)" fill="#26009c"/>
      <path id="Path_291" data-name="Path 291" d="M2782.8,4771.476h10.083s-.082-24.229,1.949-48a88.865,88.865,0,0,1-10.577,0Z" transform="translate(-2664.8 -4723.475)" fill="#26009c"/>
      <path id="Path_292" data-name="Path 292" d="M2838.939,4771.753l-.838,7.328s-14.177,3.533-22.136-1.933-6.513-17.584-6.453-17.926,2.254-10.287,9.594-14.125,20.454-.57,20.454-.57v7.759s-7.459-2.768-12.964-1.2c-6.59,1.593-12.071,16.232-2.566,20.668C2829.763,4774.585,2838.939,4771.753,2838.939,4771.753Z" transform="translate(-2675.603 -4731.506)" fill="#26009c"/>
    </g>
    <path id="iconfinder_registered_1608810" d="M4.889,3.3a.59.59,0,0,0-.282-.568,1.251,1.251,0,0,0-.549-.084H3.481V3.965h.76a.637.637,0,0,0,.479-.174A.677.677,0,0,0,4.889,3.3Zm.244,1.337.962,1.75a.142.142,0,0,1,0,.145.131.131,0,0,1-.127.075H5.25a.133.133,0,0,1-.131-.08l-.91-1.713H3.481V6.456a.145.145,0,0,1-.15.15H2.7a.145.145,0,0,1-.15-.15v-4.5A.145.145,0,0,1,2.7,1.8H4.082a2.63,2.63,0,0,1,.891.113,1.217,1.217,0,0,1,.629.511,1.554,1.554,0,0,1,.23.845,1.523,1.523,0,0,1-.2.776,1.261,1.261,0,0,1-.542.514Q5.119,4.607,5.133,4.636ZM4.2.751a3.361,3.361,0,0,0-1.342.274A3.409,3.409,0,0,0,1.025,2.862a3.417,3.417,0,0,0,0,2.684A3.409,3.409,0,0,0,2.862,7.383a3.417,3.417,0,0,0,2.684,0A3.409,3.409,0,0,0,7.383,5.546a3.417,3.417,0,0,0,0-2.684A3.409,3.409,0,0,0,5.546,1.025,3.361,3.361,0,0,0,4.2.751ZM8.408,4.2a4.109,4.109,0,0,1-.333,1.633A4.131,4.131,0,0,1,5.837,8.075a4.168,4.168,0,0,1-3.266,0A4.131,4.131,0,0,1,.333,5.837a4.168,4.168,0,0,1,0-3.266A4.131,4.131,0,0,1,2.571.333a4.168,4.168,0,0,1,3.266,0A4.131,4.131,0,0,1,8.075,2.571,4.109,4.109,0,0,1,8.408,4.2Z" transform="translate(2862.749 4379.15)"/>
    <g id="Group_30" data-name="Group 30" transform="translate(2856.371 4391.077)">
      <rect id="Rectangle_47" data-name="Rectangle 47" width="8.435" height="8.436" transform="translate(0 0)" fill="#1f009e"/>
      <rect id="Rectangle_49" data-name="Rectangle 49" width="8.436" height="8.436" transform="translate(8.409 8.436)" fill="#1f009e"/>
      <rect id="Rectangle_51" data-name="Rectangle 51" width="8.436" height="8.436" transform="translate(17.9 12.654)" fill="url(#linear-gradient)"/>
      <rect id="Rectangle_48" data-name="Rectangle 48" width="8.435" height="8.438" transform="translate(0 26.362)" fill="#4db151"/>
      <rect id="Rectangle_50" data-name="Rectangle 50" width="8.436" height="8.436" transform="translate(8.409 17.926)" fill="#4db151"/>
    </g>
  </g>
</svg>
