<svg xmlns="http://www.w3.org/2000/svg" xmlns:xlink="http://www.w3.org/1999/xlink" width="1920" height="90" viewBox="0 0 1920 90">
  <defs>
    <linearGradient id="linear-gradient" x1="1.108" y1="-0.147" x2="0.203" y2="1" gradientUnits="objectBoundingBox">
      <stop offset="0" stop-color="#56009f"/>
      <stop offset="1" stop-color="#00499f"/>
    </linearGradient>
    <clipPath id="clip-path">
      <rect id="Rectangle_7486" data-name="Rectangle 7486" width="1920" height="90" transform="translate(453 186.813)" fill="url(#linear-gradient)"/>
    </clipPath>
  </defs>
  <g id="header_img" transform="translate(0 -1648)">
    <rect id="Rectangle_1" data-name="Rectangle 1" width="1920" height="90" transform="translate(0 1648)" fill="#1055a0"/>
    <g id="d_bg" transform="translate(-453 1461.187)">
      <g id="Mask_Group_36" data-name="Mask Group 36" clip-path="url(#clip-path)">
        <path id="Exclusion_58" data-name="Exclusion 58" d="M116.5,204a133.492,133.492,0,0,1-23.479-2.072,128.276,128.276,0,0,1-21.868-5.943,122.575,122.575,0,0,1-19.789-9.4,115.453,115.453,0,0,1-17.242-12.455,107.092,107.092,0,0,1-14.226-15.1A98.785,98.785,0,0,1,9.155,141.7a92.5,92.5,0,0,1-6.788-19.146,90.449,90.449,0,0,1,0-41.113A92.5,92.5,0,0,1,9.155,62.3,98.788,98.788,0,0,1,19.9,44.971a107.1,107.1,0,0,1,14.226-15.1A115.448,115.448,0,0,1,51.364,17.42a122.572,122.572,0,0,1,19.789-9.4A128.27,128.27,0,0,1,93.022,2.072a134.039,134.039,0,0,1,46.957,0,128.269,128.269,0,0,1,21.868,5.943,122.569,122.569,0,0,1,19.789,9.4,115.444,115.444,0,0,1,17.242,12.455,107.1,107.1,0,0,1,14.226,15.1A98.79,98.79,0,0,1,223.845,62.3a92.5,92.5,0,0,1,6.788,19.147,90.449,90.449,0,0,1,0,41.113,92.5,92.5,0,0,1-6.788,19.146A98.789,98.789,0,0,1,213.1,159.029a107.1,107.1,0,0,1-14.226,15.1,115.451,115.451,0,0,1-17.242,12.455,122.573,122.573,0,0,1-19.789,9.4,128.273,128.273,0,0,1-21.868,5.943A133.489,133.489,0,0,1,116.5,204Zm0-184.045a107.38,107.38,0,0,0-18.886,1.667A103.173,103.173,0,0,0,80.025,26.4a98.584,98.584,0,0,0-15.918,7.564A92.862,92.862,0,0,0,50.239,43.986,86.144,86.144,0,0,0,38.8,56.128a79.454,79.454,0,0,0-8.64,13.937,74.4,74.4,0,0,0-5.46,15.4,72.756,72.756,0,0,0,0,33.07,74.4,74.4,0,0,0,5.46,15.4,79.455,79.455,0,0,0,8.64,13.936,86.142,86.142,0,0,0,11.443,12.142,92.859,92.859,0,0,0,13.869,10.018A98.587,98.587,0,0,0,80.025,177.6a103.179,103.179,0,0,0,17.59,4.781,107.818,107.818,0,0,0,37.771,0,103.175,103.175,0,0,0,17.59-4.781,98.585,98.585,0,0,0,15.918-7.564,92.855,92.855,0,0,0,13.868-10.018A86.137,86.137,0,0,0,194.2,147.872a79.455,79.455,0,0,0,8.64-13.936,74.4,74.4,0,0,0,5.46-15.4,72.755,72.755,0,0,0,0-33.07,74.4,74.4,0,0,0-5.46-15.4,79.457,79.457,0,0,0-8.64-13.937,86.14,86.14,0,0,0-11.443-12.142,92.86,92.86,0,0,0-13.868-10.018A98.584,98.584,0,0,0,152.975,26.4a103.175,103.175,0,0,0-17.59-4.781A107.377,107.377,0,0,0,116.5,19.955Z" transform="translate(2015 31.813)" fill="#fff" opacity="0.5" style="mix-blend-mode: overlay;isolation: isolate"/>
        <path id="Exclusion_59" data-name="Exclusion 59" d="M-123.5,678a87.129,87.129,0,0,1-17.433-1.757,86.084,86.084,0,0,1-16.237-5.04,86.533,86.533,0,0,1-14.693-7.975,87.153,87.153,0,0,1-12.8-10.562,87.149,87.149,0,0,1-10.562-12.8A86.531,86.531,0,0,1-203.2,625.17a86.08,86.08,0,0,1-5.04-16.237A87.128,87.128,0,0,1-210,591.5a87.129,87.129,0,0,1,1.757-17.433,86.08,86.08,0,0,1,5.04-16.237,86.528,86.528,0,0,1,7.975-14.693,87.146,87.146,0,0,1,10.562-12.8,87.145,87.145,0,0,1,12.8-10.562A86.533,86.533,0,0,1-157.17,511.8a86.08,86.08,0,0,1,16.237-5.04A87.129,87.129,0,0,1-123.5,505a87.129,87.129,0,0,1,17.433,1.757A86.08,86.08,0,0,1-89.83,511.8a86.528,86.528,0,0,1,14.693,7.975,87.145,87.145,0,0,1,12.8,10.562,87.146,87.146,0,0,1,10.562,12.8A86.528,86.528,0,0,1-43.8,557.83a86.08,86.08,0,0,1,5.04,16.237A87.129,87.129,0,0,1-37,591.5a87.128,87.128,0,0,1-1.757,17.433A86.08,86.08,0,0,1-43.8,625.17a86.531,86.531,0,0,1-7.975,14.693,87.149,87.149,0,0,1-10.562,12.8,87.153,87.153,0,0,1-12.8,10.562A86.532,86.532,0,0,1-89.83,671.2a86.084,86.084,0,0,1-16.237,5.04A87.129,87.129,0,0,1-123.5,678ZM-847,650a57.637,57.637,0,0,1-22.576-4.558,58,58,0,0,1-9.852-5.348,58.416,58.416,0,0,1-8.584-7.082,58.432,58.432,0,0,1-7.082-8.584,58,58,0,0,1-5.348-9.852A57.634,57.634,0,0,1-905,592a57.637,57.637,0,0,1,4.558-22.576,58.023,58.023,0,0,1,5.348-9.852,58.432,58.432,0,0,1,7.082-8.584,58.427,58.427,0,0,1,8.584-7.082,58.014,58.014,0,0,1,9.852-5.348A57.636,57.636,0,0,1-847,534a57.636,57.636,0,0,1,22.576,4.558,58.006,58.006,0,0,1,9.852,5.348,58.428,58.428,0,0,1,8.584,7.082,58.428,58.428,0,0,1,7.082,8.584,58.008,58.008,0,0,1,5.348,9.852A57.636,57.636,0,0,1-789,592a57.633,57.633,0,0,1-4.558,22.576,58.014,58.014,0,0,1-5.348,9.852,58.428,58.428,0,0,1-7.082,8.584,58.432,58.432,0,0,1-8.584,7.082,58.023,58.023,0,0,1-9.852,5.348A57.637,57.637,0,0,1-847,650ZM655,573a15,15,0,1,1,10.607-4.393A14.9,14.9,0,0,1,655,573ZM320,560a366.907,366.907,0,0,1-64.491-5.689A352.518,352.518,0,0,1,195.442,538a336.766,336.766,0,0,1-54.357-25.816,317.091,317.091,0,0,1-47.359-34.19A294.06,294.06,0,0,1,54.651,436.55a271.148,271.148,0,0,1-29.5-47.562A253.835,253.835,0,0,1,6.5,336.43a248.153,248.153,0,0,1,0-112.86,253.836,253.836,0,0,1,18.646-52.559,271.143,271.143,0,0,1,29.5-47.562A294.064,294.064,0,0,1,93.726,82.01a317.091,317.091,0,0,1,47.359-34.19A336.771,336.771,0,0,1,195.442,22,352.538,352.538,0,0,1,255.509,5.689a368.41,368.41,0,0,1,128.982,0A352.546,352.546,0,0,1,444.559,22,336.77,336.77,0,0,1,498.915,47.82a317.087,317.087,0,0,1,47.359,34.19,294.036,294.036,0,0,1,39.075,41.439,271.166,271.166,0,0,1,29.5,47.562A253.809,253.809,0,0,1,633.5,223.57a248.153,248.153,0,0,1,0,112.86,253.808,253.808,0,0,1-18.646,52.559,271.151,271.151,0,0,1-29.5,47.562,294.033,294.033,0,0,1-39.075,41.439,317.086,317.086,0,0,1-47.359,34.19A336.752,336.752,0,0,1,444.559,538a352.509,352.509,0,0,1-60.067,16.315A366.908,366.908,0,0,1,320,560Zm0-505.22a295.1,295.1,0,0,0-51.874,4.576,283.517,283.517,0,0,0-48.315,13.123,270.859,270.859,0,0,0-43.722,20.765A255.063,255.063,0,0,0,138,120.745a236.512,236.512,0,0,0-31.43,33.332,218.105,218.105,0,0,0-23.732,38.257,204.153,204.153,0,0,0-15,42.276,199.6,199.6,0,0,0,0,90.78,204.154,204.154,0,0,0,15,42.276,218.089,218.089,0,0,0,23.732,38.257A236.532,236.532,0,0,0,138,439.255a255.054,255.054,0,0,0,38.094,27.5,270.865,270.865,0,0,0,43.722,20.765,283.535,283.535,0,0,0,48.315,13.123,296.336,296.336,0,0,0,103.748,0,283.535,283.535,0,0,0,48.315-13.123,270.864,270.864,0,0,0,43.722-20.765,255.055,255.055,0,0,0,38.094-27.5,236.53,236.53,0,0,0,31.43-33.332,218.086,218.086,0,0,0,23.732-38.257,204.153,204.153,0,0,0,15-42.276,199.6,199.6,0,0,0,0-90.78,204.152,204.152,0,0,0-15-42.276,218.1,218.1,0,0,0-23.732-38.257,236.509,236.509,0,0,0-31.43-33.332,255.063,255.063,0,0,0-38.094-27.5A270.859,270.859,0,0,0,420.19,72.478a283.517,283.517,0,0,0-48.315-13.123A295.1,295.1,0,0,0,320,54.779ZM-420,530a57.636,57.636,0,0,1-22.576-4.558,58.023,58.023,0,0,1-9.852-5.348,58.435,58.435,0,0,1-8.584-7.082,58.429,58.429,0,0,1-7.082-8.584,58.01,58.01,0,0,1-5.348-9.852A57.635,57.635,0,0,1-478,472a57.634,57.634,0,0,1,4.558-22.576,58,58,0,0,1,5.348-9.852,58.405,58.405,0,0,1,7.082-8.584,58.437,58.437,0,0,1,8.584-7.082,58.023,58.023,0,0,1,9.852-5.348A57.636,57.636,0,0,1-420,414a57.633,57.633,0,0,1,22.576,4.558,58,58,0,0,1,9.852,5.348,58.437,58.437,0,0,1,8.584,7.082,58.415,58.415,0,0,1,7.082,8.584,58,58,0,0,1,5.348,9.852A57.636,57.636,0,0,1-362,472a57.637,57.637,0,0,1-4.558,22.576,58,58,0,0,1-5.348,9.852,58.425,58.425,0,0,1-7.082,8.584,58.435,58.435,0,0,1-8.584,7.082,58,58,0,0,1-9.852,5.348A57.633,57.633,0,0,1-420,530Zm-82-15a9.01,9.01,0,0,1-9-9,9.01,9.01,0,0,1,9-9,9.011,9.011,0,0,1,9,9A9.011,9.011,0,0,1-502,515Z" transform="translate(1300 -290.187)" fill="#fff" opacity="0.5" style="mix-blend-mode: overlay;isolation: isolate"/>
        <path id="Exclusion_60" data-name="Exclusion 60" d="M192,336a220.136,220.136,0,0,1-38.695-3.413,211.511,211.511,0,0,1-36.041-9.789,202.065,202.065,0,0,1-32.614-15.49,190.271,190.271,0,0,1-28.416-20.514A176.432,176.432,0,0,1,32.791,261.93a162.689,162.689,0,0,1-17.7-28.537A152.283,152.283,0,0,1,3.9,201.858a148.886,148.886,0,0,1,0-67.716,152.284,152.284,0,0,1,11.188-31.535,162.693,162.693,0,0,1,17.7-28.537A176.436,176.436,0,0,1,56.236,49.206,190.263,190.263,0,0,1,84.651,28.692,202.062,202.062,0,0,1,117.265,13.2a211.5,211.5,0,0,1,36.041-9.789,221.039,221.039,0,0,1,77.389,0,211.5,211.5,0,0,1,36.04,9.789,202.057,202.057,0,0,1,32.614,15.49,190.257,190.257,0,0,1,28.415,20.514A176.444,176.444,0,0,1,351.209,74.07a162.7,162.7,0,0,1,17.7,28.537A152.293,152.293,0,0,1,380.1,134.143a148.886,148.886,0,0,1,0,67.716,152.287,152.287,0,0,1-11.187,31.535,162.693,162.693,0,0,1-17.7,28.537,176.44,176.44,0,0,1-23.445,24.863,190.266,190.266,0,0,1-28.415,20.514,202.063,202.063,0,0,1-32.614,15.49,211.5,211.5,0,0,1-36.04,9.789A220.131,220.131,0,0,1,192,336Zm0-303.132a177.074,177.074,0,0,0-31.125,2.745,170.118,170.118,0,0,0-28.99,7.874,162.518,162.518,0,0,0-26.233,12.459A153.04,153.04,0,0,0,82.8,72.447a141.918,141.918,0,0,0-18.858,20A130.853,130.853,0,0,0,49.7,115.4a122.489,122.489,0,0,0-9,25.366,119.762,119.762,0,0,0,0,54.468,122.491,122.491,0,0,0,9,25.366,130.853,130.853,0,0,0,14.239,22.954,141.917,141.917,0,0,0,18.858,20,153.035,153.035,0,0,0,22.856,16.5,162.523,162.523,0,0,0,26.233,12.459,170.128,170.128,0,0,0,28.99,7.874,177.8,177.8,0,0,0,62.249,0,170.122,170.122,0,0,0,28.989-7.874,162.52,162.52,0,0,0,26.233-12.459,153.029,153.029,0,0,0,22.856-16.5,141.909,141.909,0,0,0,18.858-20A130.854,130.854,0,0,0,334.3,220.6a122.49,122.49,0,0,0,9-25.366,119.761,119.761,0,0,0,0-54.468,122.494,122.494,0,0,0-9-25.366,130.855,130.855,0,0,0-14.239-22.954,141.914,141.914,0,0,0-18.858-20,153.037,153.037,0,0,0-22.856-16.5,162.517,162.517,0,0,0-26.233-12.459,170.121,170.121,0,0,0-28.989-7.874A177.07,177.07,0,0,0,192,32.868Z" transform="translate(2171 -66.187)" fill="#fff" opacity="0.5" style="mix-blend-mode: overlay;isolation: isolate"/>
      </g>
    </g>
  </g>
</svg>
