<svg xmlns="http://www.w3.org/2000/svg" xmlns:xlink="http://www.w3.org/1999/xlink" width="844.465" height="1080.07" viewBox="0 0 844.465 1080.07">
  <defs>
    <clipPath id="clip-path">
      <path id="Path_6538" data-name="Path 6538" d="M0,0H600V1080H0S-172.942,801.576-172.942,531.576,0,0,0,0Z" transform="translate(-3029 1423)" fill="#fff" stroke="#707070" stroke-width="1"/>
    </clipPath>
  </defs>
  <g id="login_bg" transform="translate(-1075.535)">
    <path id="Path_6539" data-name="Path 6539" d="M-3.8,0,639.714.07v1080L-3.8,1080S-162.274,767.983-162.274,497.983-3.8,0-3.8,0Z" transform="translate(1237.809)" fill="#f0f0f0" opacity="0.4"/>
    <path id="Path_6537" data-name="Path 6537" d="M0,0H600V1080H0S-162.274,767.983-162.274,497.983,0,0,0,0Z" transform="translate(1320)" fill="#1055a0"/>
    <g id="Mask_Group_37" data-name="Mask Group 37" transform="translate(4349 -1423)" clip-path="url(#clip-path)">
      <g id="d_bg" transform="translate(-4825 1252.187)">
        <g id="Group_8291" data-name="Group 8291">
          <path id="Exclusion_58" data-name="Exclusion 58" d="M116.5,204a133.492,133.492,0,0,1-23.479-2.072,128.276,128.276,0,0,1-21.868-5.943,122.575,122.575,0,0,1-19.789-9.4,115.453,115.453,0,0,1-17.242-12.455,107.092,107.092,0,0,1-14.226-15.1A98.785,98.785,0,0,1,9.155,141.7a92.5,92.5,0,0,1-6.788-19.146,90.449,90.449,0,0,1,0-41.113A92.5,92.5,0,0,1,9.155,62.3,98.788,98.788,0,0,1,19.9,44.971a107.1,107.1,0,0,1,14.226-15.1A115.448,115.448,0,0,1,51.364,17.42a122.572,122.572,0,0,1,19.789-9.4A128.27,128.27,0,0,1,93.022,2.072a134.039,134.039,0,0,1,46.957,0,128.269,128.269,0,0,1,21.868,5.943,122.569,122.569,0,0,1,19.789,9.4,115.444,115.444,0,0,1,17.242,12.455,107.1,107.1,0,0,1,14.226,15.1A98.79,98.79,0,0,1,223.845,62.3a92.5,92.5,0,0,1,6.788,19.147,90.449,90.449,0,0,1,0,41.113,92.5,92.5,0,0,1-6.788,19.146A98.789,98.789,0,0,1,213.1,159.029a107.1,107.1,0,0,1-14.226,15.1,115.451,115.451,0,0,1-17.242,12.455,122.573,122.573,0,0,1-19.789,9.4,128.273,128.273,0,0,1-21.868,5.943A133.489,133.489,0,0,1,116.5,204Zm0-184.045a107.38,107.38,0,0,0-18.886,1.667A103.173,103.173,0,0,0,80.025,26.4a98.584,98.584,0,0,0-15.918,7.564A92.862,92.862,0,0,0,50.239,43.986,86.144,86.144,0,0,0,38.8,56.128a79.454,79.454,0,0,0-8.64,13.937,74.4,74.4,0,0,0-5.46,15.4,72.756,72.756,0,0,0,0,33.07,74.4,74.4,0,0,0,5.46,15.4,79.455,79.455,0,0,0,8.64,13.936,86.142,86.142,0,0,0,11.443,12.142,92.859,92.859,0,0,0,13.869,10.018A98.587,98.587,0,0,0,80.025,177.6a103.179,103.179,0,0,0,17.59,4.781,107.818,107.818,0,0,0,37.771,0,103.175,103.175,0,0,0,17.59-4.781,98.585,98.585,0,0,0,15.918-7.564,92.855,92.855,0,0,0,13.868-10.018A86.137,86.137,0,0,0,194.2,147.872a79.455,79.455,0,0,0,8.64-13.936,74.4,74.4,0,0,0,5.46-15.4,72.755,72.755,0,0,0,0-33.07,74.4,74.4,0,0,0-5.46-15.4,79.457,79.457,0,0,0-8.64-13.937,86.14,86.14,0,0,0-11.443-12.142,92.86,92.86,0,0,0-13.868-10.018A98.584,98.584,0,0,0,152.975,26.4a103.175,103.175,0,0,0-17.59-4.781A107.377,107.377,0,0,0,116.5,19.955Z" transform="translate(2015 31.813)" fill="#fff" opacity="0.5" style="mix-blend-mode: overlay;isolation: isolate"/>
          <path id="Exclusion_59" data-name="Exclusion 59" d="M290,1095a57.728,57.728,0,0,1-32.428-9.906,58.166,58.166,0,0,1-21.014-25.518,57.925,57.925,0,0,1,5.347-55,58.169,58.169,0,0,1,25.518-21.013,57.925,57.925,0,0,1,55,5.347,58.167,58.167,0,0,1,21.014,25.518,57.925,57.925,0,0,1-5.348,55,58.171,58.171,0,0,1-25.519,21.014A57.637,57.637,0,0,1,290,1095Zm560-58a57.731,57.731,0,0,1-32.429-9.906,58.17,58.17,0,0,1-21.014-25.518,57.923,57.923,0,0,1,5.348-55,58.168,58.168,0,0,1,25.519-21.014,57.924,57.924,0,0,1,55,5.348,58.168,58.168,0,0,1,21.014,25.518,57.924,57.924,0,0,1-5.347,55,58.169,58.169,0,0,1-25.518,21.014A57.634,57.634,0,0,1,850,1037Zm-82-15a9,9,0,1,1,9-9A9.01,9.01,0,0,1,768,1022ZM610.5,765a87.15,87.15,0,0,1-17.433-1.757,86.027,86.027,0,0,1-30.93-13.015A86.752,86.752,0,0,1,530.8,712.17a86.06,86.06,0,0,1-5.04-16.237,87.346,87.346,0,0,1,0-34.866,86.027,86.027,0,0,1,13.016-30.93A86.752,86.752,0,0,1,576.83,598.8a86.071,86.071,0,0,1,16.237-5.04,87.345,87.345,0,0,1,34.865,0,86.032,86.032,0,0,1,30.931,13.015A86.753,86.753,0,0,1,690.2,644.83a86.055,86.055,0,0,1,5.04,16.237,87.34,87.34,0,0,1,0,34.866,86.027,86.027,0,0,1-13.016,30.93A86.752,86.752,0,0,1,644.17,758.2a86.082,86.082,0,0,1-16.237,5.04A87.154,87.154,0,0,1,610.5,765Zm-320-205a290.708,290.708,0,0,1-58.546-5.943,287.861,287.861,0,0,1-103.876-44.012A292.54,292.54,0,0,1,5.9,326.449a297.347,297.347,0,0,1,0-117.9A292.122,292.122,0,0,1,177.425-2.014a287.587,287.587,0,0,1,54.53-17.044,291.366,291.366,0,0,1,117.092,0A287.861,287.861,0,0,1,452.922,24.954,292.54,292.54,0,0,1,575.1,208.551a297.347,297.347,0,0,1,0,117.9A292.121,292.121,0,0,1,403.576,537.014a287.582,287.582,0,0,1-54.53,17.044A290.71,290.71,0,0,1,290.5,560Zm-.083-527.672a233.749,233.749,0,0,0-47.078,4.779A231.456,231.456,0,0,0,159.81,72.5,235.264,235.264,0,0,0,61.564,220.15a239.143,239.143,0,0,0,0,94.814A234.915,234.915,0,0,0,199.49,484.3a231.258,231.258,0,0,0,43.849,13.706,234.279,234.279,0,0,0,94.157,0,231.459,231.459,0,0,0,83.529-35.394,235.263,235.263,0,0,0,98.246-147.648,239.145,239.145,0,0,0,0-94.814A234.917,234.917,0,0,0,381.345,50.813,231.268,231.268,0,0,0,337.5,37.107,233.753,233.753,0,0,0,290.418,32.328ZM792,185a15,15,0,1,1,10.607-4.393A14.9,14.9,0,0,1,792,185Z" transform="translate(1519 211.813)" fill="#fff" opacity="0.5" style="mix-blend-mode: overlay;isolation: isolate"/>
          <path id="Exclusion_60" data-name="Exclusion 60" d="M192,336a220.136,220.136,0,0,1-38.695-3.413,211.511,211.511,0,0,1-36.041-9.789,202.065,202.065,0,0,1-32.614-15.49,190.271,190.271,0,0,1-28.416-20.514A176.432,176.432,0,0,1,32.791,261.93a162.689,162.689,0,0,1-17.7-28.537A152.283,152.283,0,0,1,3.9,201.858a148.886,148.886,0,0,1,0-67.716,152.284,152.284,0,0,1,11.188-31.535,162.693,162.693,0,0,1,17.7-28.537A176.436,176.436,0,0,1,56.236,49.206,190.263,190.263,0,0,1,84.651,28.692,202.062,202.062,0,0,1,117.265,13.2a211.5,211.5,0,0,1,36.041-9.789,221.039,221.039,0,0,1,77.389,0,211.5,211.5,0,0,1,36.04,9.789,202.057,202.057,0,0,1,32.614,15.49,190.257,190.257,0,0,1,28.415,20.514A176.444,176.444,0,0,1,351.209,74.07a162.7,162.7,0,0,1,17.7,28.537A152.293,152.293,0,0,1,380.1,134.143a148.886,148.886,0,0,1,0,67.716,152.287,152.287,0,0,1-11.187,31.535,162.693,162.693,0,0,1-17.7,28.537,176.44,176.44,0,0,1-23.445,24.863,190.266,190.266,0,0,1-28.415,20.514,202.063,202.063,0,0,1-32.614,15.49,211.5,211.5,0,0,1-36.04,9.789A220.131,220.131,0,0,1,192,336Zm0-303.132a177.074,177.074,0,0,0-31.125,2.745,170.118,170.118,0,0,0-28.99,7.874,162.518,162.518,0,0,0-26.233,12.459A153.04,153.04,0,0,0,82.8,72.447a141.918,141.918,0,0,0-18.858,20A130.853,130.853,0,0,0,49.7,115.4a122.489,122.489,0,0,0-9,25.366,119.762,119.762,0,0,0,0,54.468,122.491,122.491,0,0,0,9,25.366,130.853,130.853,0,0,0,14.239,22.954,141.917,141.917,0,0,0,18.858,20,153.035,153.035,0,0,0,22.856,16.5,162.523,162.523,0,0,0,26.233,12.459,170.128,170.128,0,0,0,28.99,7.874,177.8,177.8,0,0,0,62.249,0,170.122,170.122,0,0,0,28.989-7.874,162.52,162.52,0,0,0,26.233-12.459,153.029,153.029,0,0,0,22.856-16.5,141.909,141.909,0,0,0,18.858-20A130.854,130.854,0,0,0,334.3,220.6a122.49,122.49,0,0,0,9-25.366,119.761,119.761,0,0,0,0-54.468,122.494,122.494,0,0,0-9-25.366,130.855,130.855,0,0,0-14.239-22.954,141.914,141.914,0,0,0-18.858-20,153.037,153.037,0,0,0-22.856-16.5,162.517,162.517,0,0,0-26.233-12.459,170.121,170.121,0,0,0-28.989-7.874A177.07,177.07,0,0,0,192,32.868Z" transform="translate(2171 -66.187)" fill="#fff" opacity="0.5" style="mix-blend-mode: overlay;isolation: isolate"/>
        </g>
      </g>
    </g>
  </g>
</svg>
