<svg xmlns="http://www.w3.org/2000/svg" width="26" height="18" viewBox="0 0 26 18">
  <g id="mail" transform="translate(-3 -7)">
    <path id="Path_7754" data-name="Path 7754" d="M28,13a1,1,0,0,0-1,1v8a1,1,0,0,1-1,1H6a1,1,0,0,1-1-1V14a1,1,0,1,0-2,0v8a3,3,0,0,0,3,3H26a3,3,0,0,0,3-3V14A1,1,0,0,0,28,13Z" fill="#fff"/>
    <path id="Path_7755" data-name="Path 7755" d="M15.4,18.8a1,1,0,0,0,1.2,0L28.41,9.94a1,1,0,0,0,.3-1.23,3.06,3.06,0,0,0-.59-.83A3,3,0,0,0,26,7H6a3,3,0,0,0-2.12.88,3.06,3.06,0,0,0-.59.83,1,1,0,0,0,.3,1.23ZM6,9H26a.9.9,0,0,1,.28,0L16,16.75,5.72,9A.9.9,0,0,1,6,9Z" fill="#fff"/>
  </g>
</svg>
