<svg xmlns="http://www.w3.org/2000/svg" width="9.464" height="9.41" viewBox="0 0 9.464 9.41">
  <g id="next" transform="translate(0.543 0.551)">
    <g id="Layer_2" data-name="Layer 2" transform="translate(13.664 -5.364) rotate(90)">
      <path id="Path_6391" data-name="Path 6391" d="M9.717,14.969l3.869,3.873a.392.392,0,0,1-.553.553L9.482,15.843,6.033,19.293a.392.392,0,0,1-.553,0h0a.392.392,0,0,1,0-.557l3.767-3.767a.333.333,0,0,1,.47,0Z" transform="translate(0 -5.825)" fill="#626675" stroke="#626675" stroke-width="1"/>
      <path id="Path_6392" data-name="Path 6392" d="M9.72,5.389l3.869,3.873a.392.392,0,0,1-.553.553L9.485,6.263,6.036,9.713a.392.392,0,0,1-.553,0h0a.392.392,0,0,1,0-.553L9.25,5.389A.333.333,0,0,1,9.72,5.389Z" transform="translate(-0.003)" fill="#626675" stroke="#626675" stroke-width="1"/>
    </g>
  </g>
</svg>
