<svg xmlns="http://www.w3.org/2000/svg" width="19.432" height="21.966" viewBox="0 0 19.432 21.966">
  <g id="profile_icon" transform="translate(-17.991 -14.5)">
    <path id="Path_6735" data-name="Path 6735" d="M30,21.761A6.761,6.761,0,1,0,36.761,15,6.781,6.781,0,0,0,30,21.761Zm1.591,0a5.185,5.185,0,0,1,5.17-5.17c1.18,0,5.244,1.427,5.244,5.17a5.276,5.276,0,0,1-5.244,5.251C32.469,27.249,31.591,22.73,31.591,21.761Z" transform="translate(-9.053)" fill="#b5b5b5" stroke="#b5b5b5" stroke-width="1"/>
    <path id="Path_6736" data-name="Path 6736" d="M19.833,99.852a11.137,11.137,0,0,1,15.748,0l1.133-1.133a12.769,12.769,0,0,0-18.015,0Z" transform="translate(0 -64.093)" fill="#b5b5b5" stroke="#b5b5b5" stroke-width="1"/>
  </g>
</svg>
