<svg xmlns="http://www.w3.org/2000/svg" width="26.822" height="28.6" viewBox="0 0 26.822 28.6">
  <g id="settings" transform="translate(-2.512 -1.7)">
    <circle id="XMLID_224_" cx="4" cy="4" r="4" transform="translate(12 12)" fill="none" stroke="#b5b5b5" stroke-linecap="round" stroke-linejoin="round" stroke-miterlimit="10" stroke-width="2.6"/>
    <path id="XMLID_242_" d="M27.758,10.366l-1-1.732A2,2,0,0,0,24.026,7.9l-.526.3a3,3,0,0,1-4.5-2.6V5a2,2,0,0,0-2-2H15a2,2,0,0,0-2,2v.608a3,3,0,0,1-4.5,2.6l-.526-.3a2,2,0,0,0-2.732.732l-1,1.732A2,2,0,0,0,4.974,13.1l.526.3a3,3,0,0,1,0,5.2l-.526.3a2,2,0,0,0-.732,2.732l1,1.732a2,2,0,0,0,2.732.732l.526-.3a3,3,0,0,1,4.5,2.6V27a2,2,0,0,0,2,2h2a2,2,0,0,0,2-2v-.608a3,3,0,0,1,4.5-2.6l.526.3a2,2,0,0,0,2.732-.732l1-1.732a2,2,0,0,0-.732-2.732l-.526-.3a3,3,0,0,1,0-5.2l.526-.3A2,2,0,0,0,27.758,10.366Z" fill="none" stroke="#b5b5b5" stroke-linecap="round" stroke-linejoin="round" stroke-miterlimit="10" stroke-width="2.6"/>
  </g>
</svg>
