<svg xmlns="http://www.w3.org/2000/svg" width="364.498" height="264.01" viewBox="0 0 364.498 264.01">
  <g id="succes_img" transform="translate(-54.31)">
    <g id="freepik--background-complete--inject-97" transform="translate(55.077)">
      <path id="Path_7573" data-name="Path 7573" d="M651.513,299.16l-7.479.159-3.785.063c-1.262.028-2.535,0-3.8.034h-.25v-.256l-.017-6.376V292.5h.284l7.524.034c2.506,0,5.018.063,7.524.091h.154v.159c0,1.08-.046,2.154-.074,3.217Zm0,0-.079-3.211c0-1.057-.062-2.1-.074-3.148l.153.159c-2.506.028-5.018.091-7.524.091l-7.524.034.284-.284-.034,6.359-.25-.25c1.239,0,2.478,0,3.717.028l3.74.068Z" transform="translate(-306.269 -126.272)" fill="#ebebeb"/>
      <path id="Path_7574" data-name="Path 7574" d="M636.743,313.283l-7.462.159-3.785.063c-1.262,0-2.535,0-3.8.034h-.256v-.256l-.028-6.359v-.284h.284l7.524.04c2.506,0,5.012.063,7.524.091h.153v.153c0,1.08-.051,2.154-.074,3.217Zm0,0-.08-3.211c0-1.057-.068-2.1-.08-3.148l.159.159c-2.512.028-5.018.091-7.524.091l-7.524.034.284-.284-.034,6.359-.25-.25c1.239,0,2.472,0,3.717.028l3.739.068Z" transform="translate(-299.893 -132.376)" fill="#ebebeb"/>
      <path id="Path_7575" data-name="Path 7575" d="M101.673,299.16l-7.456.159-3.785.063c-1.267.028-2.54,0-3.808.034h-.25v-.256l-.034-6.376V292.5h.284l7.524.034c2.506,0,5.018.063,7.524.091h.159v.159c0,1.08-.045,2.154-.074,3.217Zm0,0-.08-3.211c-.028-1.057-.063-2.1-.074-3.148l.153.159c-2.506.028-5.018.091-7.524.091l-7.524.034.284-.284v6.359l-.256-.25c1.239,0,2.478,0,3.722.028l3.728.1Z" transform="translate(-68.904 -126.272)" fill="#ebebeb"/>
      <path id="Path_7576" data-name="Path 7576" d="M86.907,313.283l-7.462.159-3.785.063c-1.262,0-2.535,0-3.8.034h-.25v-.256l-.028-6.359v-.284h.284l7.524.04c2.506,0,5.018.063,7.524.091h.159v.153c0,1.08-.045,2.154-.074,3.217Zm0,0-.08-3.211c0-1.057-.063-2.1-.074-3.148l.153.159c-2.506.028-5.018.091-7.524.091l-7.524.034.284-.284-.034,6.359-.25-.25c1.239,0,2.478,0,3.717.028l3.739.068Z" transform="translate(-62.533 -132.376)" fill="#ebebeb"/>
      <path id="Path_7577" data-name="Path 7577" d="M666.3,313.283l-7.456.159-3.785.063c-1.267,0-2.54,0-3.808.034H651v-6.9h.284l7.524.04c2.506,0,5.018.063,7.524.091h.159v.153c0,1.08-.046,2.154-.074,3.217Zm0,0-.08-3.211c0-1.057-.063-2.1-.074-3.148l.153.159c-2.506.028-5.018.091-7.524.091l-7.524.034.284-.284-.028,6.359-.256-.25c1.239,0,2.478,0,3.722.028l3.739.068Z" transform="translate(-312.667 -132.376)" fill="#ebebeb"/>
      <path id="Path_7578" data-name="Path 7578" d="M462.043,132.323l-7.462.159-3.785.063c-1.262.028-2.535,0-3.8.034h-.256v-.256l-.028-6.359v-.284h.284l7.524.034c2.506,0,5.018.068,7.524.1h.176v.153c0,1.08-.046,2.154-.074,3.211Zm0,0-.08-3.211c-.028-1.063-.068-2.108-.074-3.148l.153.153c-2.506,0-5.018.091-7.524.1l-7.524.034.284-.284-.034,6.359-.25-.256c1.239,0,2.478,0,3.717.034l3.739.063Z" transform="translate(-224.475 -54.256)" fill="#ebebeb"/>
      <path id="Path_7579" data-name="Path 7579" d="M447.277,146.433l-7.462.159-3.785.063c-1.262,0-2.535,0-3.8.034h-.25v-.256l-.028-6.359v-.284h.29l7.524.034c2.506,0,5.012.068,7.524.1h.153v.153c0,1.08-.051,2.154-.074,3.211Zm0,0-.08-3.211c0-1.063-.068-2.108-.08-3.148l.159.153c-2.512.028-5.018.091-7.524.1l-7.524.034.284-.284-.034,6.359-.25-.256c1.239,0,2.472,0,3.717.034l3.739.063Z" transform="translate(-218.104 -60.347)" fill="#ebebeb"/>
      <path id="Path_7580" data-name="Path 7580" d="M476.839,146.433l-7.456.159-3.791.063c-1.262,0-2.535,0-3.8.034h-.25v-6.9h.284l7.524.034c2.506,0,5.018.068,7.524.1h.159v.153c0,1.08-.045,2.154-.074,3.211Zm0,0-.08-3.211c-.028-1.063-.062-2.108-.074-3.148l.153.153c-2.506.028-5.018.091-7.524.1l-7.524.034.284-.284-.028,6.359-.244-.273c1.239,0,2.478,0,3.722.034l3.734.063Z" transform="translate(-230.878 -60.347)" fill="#ebebeb"/>
      <path id="Path_7581" data-name="Path 7581" d="M138.044,240.059l-7.462.159-3.785.063c-1.262,0-2.535,0-3.8.028h-.256v-6.9h.284l7.524.034c2.506,0,5.012.063,7.524.091h.153v.153c0,1.08-.051,2.148-.074,3.211Zm0,0-.08-3.217c-.028-1.057-.068-2.1-.08-3.143l.159.153c-2.512.028-5.018.091-7.524.091l-7.524.04.284-.284-.034,6.359L123,239.8c1.239,0,2.478,0,3.717.034l3.739.063Z" transform="translate(-84.618 -100.763)" fill="#ebebeb"/>
      <path id="Path_7582" data-name="Path 7582" d="M259.714,342.213l-7.462.159-3.785.063c-1.262.028-2.535,0-3.8.034h-.256v-6.9h.284l7.524.04c2.506,0,5.018.062,7.524.091h.153v.153c0,1.08-.045,2.154-.074,3.217Zm0,0-.08-3.211c-.028-1.057-.062-2.108-.074-3.148l.153.159c-2.506,0-5.018.085-7.524.091l-7.524.034.284-.284-.034,6.359-.25-.25c1.239,0,2.478,0,3.717.028l3.751.074Z" transform="translate(-137.143 -144.865)" fill="#ebebeb"/>
      <path id="Path_7583" data-name="Path 7583" d="M649.983,57.333l-7.462.159-3.785.063c-1.262,0-2.535,0-3.8.034h-.256v-.256l-.028-6.359V50.69h.284l7.524.034c2.506,0,5.013.068,7.524.1h.153v.153c0,1.08-.045,2.154-.074,3.211Zm0,0-.08-3.211c0-1.063-.068-2.108-.08-3.148l.159.153c-2.512,0-5.018.091-7.524.1l-7.524.034.284-.284-.034,6.359-.25-.256c1.239,0,2.478,0,3.717.034l3.739.063Z" transform="translate(-305.609 -21.883)" fill="#ebebeb"/>
      <path id="Path_7584" data-name="Path 7584" d="M664.757,71.443,657.3,71.6l-3.785.063c-1.262.028-2.535,0-3.8.034h-.25v-.256l-.028-6.359V64.8h.284l7.524.034c2.506,0,5.018.068,7.524.1h.159v.153c0,1.08-.046,2.154-.074,3.211Zm0,0-.08-3.211c0-1.063-.062-2.108-.074-3.148l.154.153c-2.506.028-5.018.091-7.524.1l-7.524.034.284-.284-.034,6.359-.25-.256c1.239,0,2.478,0,3.717.034l3.739.063Z" transform="translate(-311.989 -27.974)" fill="#ebebeb"/>
      <path id="Path_7585" data-name="Path 7585" d="M86.9,57.343l-7.462.159-3.785.063c-1.262,0-2.535,0-3.8.034H71.6v-.256l-.034-6.359V50.7h.284l7.524.04c2.506,0,5.018.063,7.524.091h.159v.153c0,1.08-.045,2.154-.074,3.217Zm0,0-.08-3.211c0-1.057-.063-2.108-.074-3.148l.153.153c-2.506.034-5.018.091-7.524.1l-7.524.034.284-.284L72.1,57.343l-.25-.222h3.717l3.739.063Z" transform="translate(-62.528 -21.887)" fill="#ebebeb"/>
      <rect id="Rectangle_8014" data-name="Rectangle 8014" width="55.574" height="103.357" transform="translate(77.437 217.194) rotate(180)" fill="#ebebeb"/>
      <rect id="Rectangle_8015" data-name="Rectangle 8015" width="60.956" height="2.853" transform="translate(80.131 113.837) rotate(180)" fill="#dbdbdb"/>
      <rect id="Rectangle_8016" data-name="Rectangle 8016" width="19.169" height="2.853" transform="translate(19.169 113.837) rotate(180)" fill="#ebebeb"/>
      <rect id="Rectangle_8017" data-name="Rectangle 8017" width="18.828" height="103.357" transform="translate(21.863 217.194) rotate(180)" fill="#dbdbdb"/>
      <rect id="Rectangle_8018" data-name="Rectangle 8018" width="43.469" height="24.505" transform="translate(71.384 180.322) rotate(180)" fill="none" stroke="#c7c7c7" stroke-miterlimit="10" stroke-width="0.25"/>
      <rect id="Rectangle_8019" data-name="Rectangle 8019" width="8.49" height="4.882" transform="translate(55.739 167.831) rotate(180)" fill="#c7c7c7"/>
      <rect id="Rectangle_8020" data-name="Rectangle 8020" width="8.49" height="4.143" transform="translate(53.227 167.462) rotate(180)" fill="none" stroke="#c7c7c7" stroke-miterlimit="10" stroke-width="0.25"/>
      <rect id="Rectangle_8021" data-name="Rectangle 8021" width="43.469" height="24.505" transform="translate(71.384 211.283) rotate(180)" fill="none" stroke="#c7c7c7" stroke-miterlimit="10" stroke-width="0.25"/>
      <rect id="Rectangle_8022" data-name="Rectangle 8022" width="8.49" height="4.882" transform="translate(55.739 198.792) rotate(180)" fill="#c7c7c7"/>
      <rect id="Rectangle_8023" data-name="Rectangle 8023" width="8.49" height="4.143" transform="translate(53.227 198.423) rotate(180)" fill="none" stroke="#c7c7c7" stroke-miterlimit="10" stroke-width="0.25"/>
      <rect id="Rectangle_8024" data-name="Rectangle 8024" width="43.469" height="24.505" transform="translate(71.384 149.361) rotate(180)" fill="#a6a6a6"/>
      <rect id="Rectangle_8025" data-name="Rectangle 8025" width="33.092" height="23.988" transform="translate(32.149 118.582)" fill="#c7c7c7"/>
      <path id="Path_7586" data-name="Path 7586" d="M149.371,204.28h11.7v2.489H148.7Z" transform="translate(-95.825 -88.187)" fill="#c7c7c7"/>
      <path id="Path_7587" data-name="Path 7587" d="M112.38,234.153h33.092l2.552-21.993H114.932Z" transform="translate(-80.146 -91.589)" fill="#a6a6a6"/>
      <path id="Path_7588" data-name="Path 7588" d="M154.278,208.15h11.69l-.261,2.279H153.34Z" transform="translate(-97.828 -89.858)" fill="#a6a6a6"/>
      <rect id="Rectangle_8026" data-name="Rectangle 8026" width="43.469" height="24.505" transform="translate(92.321 149.361) rotate(180)" fill="#ebebeb" stroke="#c7c7c7" stroke-miterlimit="10" stroke-width="0.25"/>
      <rect id="Rectangle_8027" data-name="Rectangle 8027" width="8.49" height="4.882" transform="translate(76.675 136.87) rotate(180)" fill="#c7c7c7"/>
      <rect id="Rectangle_8028" data-name="Rectangle 8028" width="8.49" height="4.143" transform="translate(74.163 136.5) rotate(180)" fill="none" stroke="#c7c7c7" stroke-miterlimit="10" stroke-width="0.25"/>
      <rect id="Rectangle_8029" data-name="Rectangle 8029" width="20.834" height="20.834" transform="translate(48.749 149.361) rotate(180)" fill="#dbdbdb"/>
      <line id="Line_35" data-name="Line 35" y1="25.943" transform="translate(85.279)" fill="none" stroke="#c7c7c7" stroke-miterlimit="10" stroke-width="1"/>
      <path id="Path_7589" data-name="Path 7589" d="M209.574,66.234l-1.29,2.836H178.8l-1.29-2.836,12.554-8.684h6.956Z" transform="translate(-108.262 -24.844)" fill="#ebebeb"/>
      <path id="Path_7590" data-name="Path 7590" d="M206.765,42.82l-.87,8.371h-6.956l-.87-8.371Z" transform="translate(-117.138 -18.485)" fill="#dbdbdb"/>
      <path id="Path_7591" data-name="Path 7591" d="M209.568,72.84l-1.29,2.83H178.794l-1.284-2.83Z" transform="translate(-108.262 -31.445)" fill="#dbdbdb"/>
      <line id="Line_36" data-name="Line 36" y1="25.943" transform="translate(149.412)" fill="none" stroke="#c7c7c7" stroke-miterlimit="10" stroke-width="1"/>
      <path id="Path_7592" data-name="Path 7592" d="M322.428,66.234l-1.29,2.836H291.654l-1.284-2.836,12.554-8.684h6.95Z" transform="translate(-156.984 -24.844)" fill="#ebebeb"/>
      <path id="Path_7593" data-name="Path 7593" d="M319.621,42.82l-.875,8.371H311.8l-.875-8.371Z" transform="translate(-165.855 -18.485)" fill="#dbdbdb"/>
      <path id="Path_7594" data-name="Path 7594" d="M322.428,72.84l-1.29,2.83H291.654l-1.284-2.83Z" transform="translate(-156.984 -31.445)" fill="#dbdbdb"/>
      <line id="Line_37" data-name="Line 37" y1="25.943" transform="translate(213.551)" fill="none" stroke="#c7c7c7" stroke-miterlimit="10" stroke-width="1"/>
      <path id="Path_7595" data-name="Path 7595" d="M435.278,66.234l-1.284,2.836H404.51l-1.29-2.836,12.554-8.684h6.956Z" transform="translate(-205.701 -24.844)" fill="#ebebeb"/>
      <path id="Path_7596" data-name="Path 7596" d="M432.475,42.82l-.87,8.371H424.65l-.87-8.371Z" transform="translate(-214.577 -18.485)" fill="#dbdbdb"/>
      <path id="Path_7597" data-name="Path 7597" d="M435.278,72.84l-1.29,2.83H404.5l-1.284-2.83Z" transform="translate(-205.701 -31.445)" fill="#dbdbdb"/>
      <line id="Line_38" data-name="Line 38" y1="25.943" transform="translate(277.684)" fill="none" stroke="#c7c7c7" stroke-miterlimit="10" stroke-width="1"/>
      <path id="Path_7598" data-name="Path 7598" d="M548.138,66.234l-1.29,2.836H517.364l-1.284-2.836,12.548-8.684h6.956Z" transform="translate(-254.422 -24.844)" fill="#ebebeb"/>
      <path id="Path_7599" data-name="Path 7599" d="M545.325,42.82l-.869,8.371H537.5l-.869-8.371Z" transform="translate(-263.294 -18.485)" fill="#dbdbdb"/>
      <path id="Path_7600" data-name="Path 7600" d="M548.138,72.84l-1.29,2.83H517.364l-1.284-2.83Z" transform="translate(-254.422 -31.445)" fill="#dbdbdb"/>
    </g>
    <g id="freepik--Floor--inject-97" transform="translate(54.31 216.91)">
      <path id="Path_7601" data-name="Path 7601" d="M54.31,381.964l45.561-.136,45.561-.051,91.127-.1,91.127.1,45.561.051,45.561.136-45.561.142-45.561.045-91.127.1-91.127-.1L99.871,382.1Z" transform="translate(-54.31 -381.68)" fill="#263238"/>
    </g>
    <g id="freepik--Shadow--inject-97" transform="translate(69.256 238.698)">
      <ellipse id="Ellipse_942" data-name="Ellipse 942" cx="167.302" cy="12.656" rx="167.302" ry="12.656" transform="translate(0)" fill="#ebebeb"/>
    </g>
    <g id="freepik--Plant--inject-97" transform="translate(56.441 134.729)">
      <path id="Path_7602" data-name="Path 7602" d="M127.706,265.537c-2.046-2.006-4.688-4.427-7.82-3.563-2.938.813-4.069,4.024-4.592,6.7-.682,3.45-1.21,6.933-1.756,10.406s-1.074,7.019-1.58,10.536c-.284,1.983-.568,3.978-.841,5.95-.142.989-.278,1.983-.415,2.972s-.3,1.949-.352,2.927a.293.293,0,0,0,.568.063c.375-1.654.534-3.376.779-5.052l.727-5.069c.489-3.353,1-6.706,1.506-10.059s1.029-6.706,1.563-10.059c.455-2.842.665-6.365,3.188-8.24a4.859,4.859,0,0,1,4.706-.443,14.1,14.1,0,0,1,4.279,2.995.04.04,0,0,0,.04-.062Z" transform="translate(-80.633 -247.745)" fill="#263238"/>
      <path id="Path_7603" data-name="Path 7603" d="M130.79,260.282s-4.177-1.5-6.251,1.551.4,10.8,19.447,15.191a53.785,53.785,0,0,0-4.6-17.18C135.336,250.911,128.033,254.281,130.79,260.282Z" transform="translate(-86.496 -244.542)" fill="#90b645"/>
      <path id="Path_7604" data-name="Path 7604" d="M146.411,280.013a16.663,16.663,0,0,0-.96-1.546c-.318-.489-.642-.977-.966-1.466l-.744-1.091a.736.736,0,0,1,.034-.267l.068-.5c.045-.352.1-.71.148-1.068s.114-.7.182-1.063a5.321,5.321,0,0,1,.25-1.137c0-.057-.08-.085-.085,0a4.139,4.139,0,0,1-.171.631c-.045.159-.085.318-.125.477-.1.364-.182.727-.261,1.091s-.142.671-.2,1.012a3.767,3.767,0,0,1-.074.489c-.341-.489-.682-.966-1.04-1.438-1.012-1.33-2.08-2.614-3.188-3.864v-.034a34.227,34.227,0,0,1,.494-5.95c0-.051-.068-.08-.08-.028a20.306,20.306,0,0,0-.716,5.683c-.392-.443-.8-.887-1.2-1.318-.932-1-1.875-1.983-2.842-2.944-.04-.04-.1,0-.063.063,1.608,1.7,3.131,3.523,4.615,5.353a34,34,0,0,0-3.484.131c-1.29.1-2.569.261-3.853.438-.057,0-.04.091,0,.085A36.376,36.376,0,0,1,136,271.4c1.245-.051,2.478,0,3.722,0,.8.995,1.6,2,2.375,3.006h-1.051c-.568,0-1.137.051-1.7.1a26.284,26.284,0,0,0-3.518.529.045.045,0,0,0,0,.085c1.171-.131,2.341-.244,3.518-.284h2.58a1.137,1.137,0,0,0,.477-.045c.511.665,1.029,1.33,1.534,2,.4.529.8,1.068,1.193,1.608s.762,1.137,1.2,1.677C146.371,280.1,146.428,280.053,146.411,280.013Z" transform="translate(-90.03 -248.798)" fill="#263238"/>
      <path id="Path_7605" data-name="Path 7605" d="M136.028,272.307a12.2,12.2,0,0,0-2.035-.1c-.682,0-1.364,0-2.04.045a.045.045,0,1,0,0,.085c.688-.051,1.375-.063,2.069-.051s1.33.074,2,.057C136.045,272.336,136.051,272.307,136.028,272.307Z" transform="translate(-89.933 -252.236)" fill="#263238"/>
      <path id="Path_7606" data-name="Path 7606" d="M149.452,273.571c.074-.654.159-1.307.3-1.944,0-.063-.074-.085-.085,0-.1.642-.222,1.279-.313,1.921-.051.318-.091.642-.131.96a4.1,4.1,0,0,0-.08.909.057.057,0,0,0,.114,0,5.941,5.941,0,0,0,.1-.9C149.378,274.185,149.412,273.878,149.452,273.571Z" transform="translate(-97.378 -251.966)" fill="#263238"/>
      <path id="Path_7607" data-name="Path 7607" d="M146.971,262.386c-.165.631-.33,1.273-.449,1.915-.057.33-.108.654-.153.983a4.251,4.251,0,0,0-.062.966h.051a5.487,5.487,0,0,0,.148-.915c.045-.318.091-.631.148-.949.114-.665.233-1.318.4-1.972C147.068,262.358,146.988,262.33,146.971,262.386Z" transform="translate(-96.153 -247.987)" fill="#263238"/>
      <path id="Path_7608" data-name="Path 7608" d="M96.731,312.8c-.1-1.2-.222-2.4-.347-3.6q-.375-3.558-.858-7.1c-.318-2.353-.619-4.717-1-7.064a17.615,17.615,0,0,0-.727-3.211,3.046,3.046,0,0,0-1.779-2.006c-2.239-.773-3.751,1.551-4.654,3.194-.028.051.045.085.074.04.568-.773,2.04-2.961,3.739-2.842,1.137.068,2.057.875,2.609,3.728,1.37,7.1,2.6,21.527,2.745,22.471.074.494.426.477.432-.063C96.969,315.149,96.816,313.967,96.731,312.8Z" transform="translate(-70.708 -259.775)" fill="#263238"/>
      <path id="Path_7609" data-name="Path 7609" d="M80.962,290.636s1.961-6.916-2.37-3.461c-7.206,5.734-7.462,18.277-7.462,18.277s12.81-7.428,14.406-12.349C87.906,285.795,80.962,290.636,80.962,290.636Z" transform="translate(-63.702 -258.285)" fill="#90b645"/>
      <path id="Path_7610" data-name="Path 7610" d="M84.014,296.756c-1.006.2-2.023.335-3.04.483l-1.443.2-.977.114c.955-1.313,1.915-2.626,2.842-3.978.034-.051-.045-.1-.085-.063a30.637,30.637,0,0,0-2.142,2.472l-.568-1.6c-.222-.619-.455-1.239-.614-1.875,0-.057-.1,0-.08,0,.176.636.3,1.284.466,1.915s.352,1.222.568,1.819c-.466.608-.921,1.233-1.358,1.864-.216-.625-.494-1.228-.688-1.864,0-.051-.1-.028-.08,0,.227.7.352,1.432.568,2.137q-.443.648-.869,1.3c-.517.8-1.006,1.614-1.483,2.432a.188.188,0,0,0-.108.193c-.813,1.4-1.58,2.841-2.341,4.257,0,.045.051.091.074.04.762-1.415,1.608-2.8,2.489-4.149h0a1.85,1.85,0,0,1,.415-.08l.443-.1.989-.239c.648-.165,1.29-.318,1.955-.432.051,0,0-.091-.028-.08-.773.148-1.551.233-2.336.324-.369.045-.739.091-1.108.148h-.051c.46-.7.926-1.4,1.4-2.08s.943-1.347,1.426-2.012c.443-.063.887-.176,1.324-.261l1.489-.29c.989-.193,1.978-.421,2.972-.568C84.094,296.813,84.071,296.756,84.014,296.756Z" transform="translate(-64.328 -260.994)" fill="#263238"/>
      <path id="Path_7611" data-name="Path 7611" d="M78.735,299.852l-.17-.568a11.544,11.544,0,0,1-.3-1.137c0-.051-.091-.028-.08,0,.08.392.176.784.261,1.171a8.05,8.05,0,0,0,.335,1.137.08.08,0,0,0,.148-.045C78.877,300.238,78.8,300.045,78.735,299.852Z" transform="translate(-66.749 -263.425)" fill="#263238"/>
      <path id="Path_7612" data-name="Path 7612" d="M92.3,297.15c-.568.091-1.176.131-1.762.182s-1.176.131-1.762.222a.026.026,0,0,0,0,.051c.568-.04,1.176-.085,1.762-.165s1.171-.165,1.762-.2A.043.043,0,1,0,92.3,297.15Z" transform="translate(-71.311 -263.008)" fill="#263238"/>
      <path id="Path_7613" data-name="Path 7613" d="M103.328,286.55c-.227-5.115-.568-10.173-1.063-15.242-.256-2.529-.54-5.052-.9-7.564a54.322,54.322,0,0,0-1.455-7.314,14.208,14.208,0,0,0-2.438-5.16,5.541,5.541,0,0,0-4.921-2.148,9.935,9.935,0,0,0-5.575,3.205c-1.739,1.7-3.336,3.58-4.95,5.41q-.614.693-1.21,1.4c-.04.04,0,.1.063.057,1.574-1.813,3.211-3.569,4.927-5.251,1.586-1.557,3.217-3.256,5.41-3.9a5.581,5.581,0,0,1,3.143-.074,5.047,5.047,0,0,1,2.148,1.358,11.27,11.27,0,0,1,2.421,4.711,81.272,81.272,0,0,1,2.364,14.418c.506,4.831.87,9.832,1.137,14.776s.443,9.917.921,14.861c.057.608.136,1.216.216,1.824.051.409.688.409.654,0C103.789,296.779,103.556,291.664,103.328,286.55Z" transform="translate(-67.878 -242.263)" fill="#263238"/>
      <path id="Path_7614" data-name="Path 7614" d="M76.882,250.181s2.9-5.382-.529-7.109-14.918,11.11-18.294,29.876c0,0,18.572-8.212,24.875-16.4S82.093,246.556,76.882,250.181Z" transform="translate(-58.06 -239.595)" fill="#90b645"/>
      <path id="Path_7615" data-name="Path 7615" d="M81.828,259.3c-2.086,0-4.166-.159-6.251-.142l1.137-1.347a19.092,19.092,0,0,0,1.631-1.892c0-.045-.034-.108-.074-.074a15.407,15.407,0,0,0-1.557,1.586L75.151,259.1c-.8.864-1.574,1.739-2.358,2.62v-3.472c0-1.432,0-2.876.108-4.308,0-.057-.08-.051-.085,0-.1,1.438-.25,2.876-.318,4.313-.034.71-.051,1.415-.063,2.125v1.711l-.369.409c-1.665,1.9-3.251,3.876-4.791,5.876v-.33a6.606,6.606,0,0,0-.074-.665c-.051-.477-.119-.955-.193-1.432s-.136-.892-.21-1.341a15.346,15.346,0,0,1-.244-1.517.045.045,0,1,0-.085,0,13.833,13.833,0,0,1,.176,1.529c.04.46.085.921.125,1.381s.085.921.131,1.375a5.272,5.272,0,0,0,.068.665.937.937,0,0,0,.04.33.568.568,0,0,0,.085.261l-.79,1.04c-1.051,1.392-2.086,2.8-3.12,4.211-.034.04.028.1.063.057.977-1.279,1.983-2.529,3.006-3.773.762.034,1.54,0,2.307-.034s1.608,0,2.415,0c.057,0,.051-.085,0-.085H66.337c.9-1.1,1.807-2.177,2.716-3.262l1-1.182a4.636,4.636,0,0,0,.932.034h1.1l2.057-.028c1.415,0,2.842-.074,4.251-.074a.043.043,0,1,0,0-.085c-1.421,0-2.842-.08-4.257-.114-.688,0-1.375-.045-2.063-.051H70.337l2.341-2.773a.137.137,0,0,0,.057-.028c.762-.9,1.517-1.8,2.273-2.682.1-.125.21-.244.318-.364,2.165.068,4.325-.074,6.484-.034a.052.052,0,1,0,.017-.1Z" transform="translate(-60.267 -244.336)" fill="#263238"/>
      <path id="Path_7616" data-name="Path 7616" d="M93.688,269.89h-.506c-.051,0-.045.074,0,.08h.506C93.745,269.953,93.745,269.89,93.688,269.89Z" transform="translate(-73.207 -251.24)" fill="#263238"/>
      <path id="Path_7617" data-name="Path 7617" d="M89.117,269.821c-.665,0-1.336,0-2.006-.04l-1-.034a3.653,3.653,0,0,0-.932,0c-.034,0,0,.057,0,.063a3.689,3.689,0,0,0,.938.068h3.006C89.179,269.906,89.174,269.821,89.117,269.821Z" transform="translate(-69.76 -251.165)" fill="#263238"/>
      <path id="Path_7618" data-name="Path 7618" d="M78.733,280.649a27.592,27.592,0,0,0-4.1-.369v.028c1.364.131,2.728.2,4.086.426C78.767,280.74,78.818,280.655,78.733,280.649Z" transform="translate(-65.213 -255.725)" fill="#263238"/>
      <path id="Path_7619" data-name="Path 7619" d="M71.611,268.356a.971.971,0,0,0-.045-.358c-.034-.273-.074-.568-.119-.807-.08-.511-.165-1.017-.261-1.523a.045.045,0,0,0-.085,0c.063.523.119,1.051.17,1.58,0,.256.04.517.063.773a2.1,2.1,0,0,0,.108.733.1.1,0,0,0,.176,0A.983.983,0,0,0,71.611,268.356Z" transform="translate(-63.689 -249.404)" fill="#263238"/>
      <path id="Path_7620" data-name="Path 7620" d="M114.547,241.436c-.665-1.239-1.512-2.841-3.171-2.768-1.37.085-1.989,1.483-2.273,2.637a54.994,54.994,0,0,0-1.137,11.008c-.369,7.74-.7,15.486-.756,23.238V282c0,2.188,0,4.393.153,6.581a.159.159,0,1,0,.318,0c0-1.875-.051-3.751-.057-5.626s0-3.66.034-5.484q.085-5.558.3-11.11c.136-3.683.3-7.36.455-11.036.08-1.841.153-3.677.239-5.518s.159-3.563.364-5.331c.114-.995.256-1.989.466-2.967a4.1,4.1,0,0,1,.858-1.983,1.875,1.875,0,0,1,2.421-.176,5.2,5.2,0,0,1,1.7,2.142C114.479,241.532,114.57,241.487,114.547,241.436Z" transform="translate(-79.278 -237.76)" fill="#263238"/>
      <path id="Path_7621" data-name="Path 7621" d="M116.648,240.157s-1.364-4.819,1.648-2.41c5.018,4.012,5.2,12.73,5.2,12.73s-8.922-5.183-10.036-8.6C111.812,236.787,116.648,240.157,116.648,240.157Z" transform="translate(-81.828 -237.073)" fill="#90b645"/>
      <path id="Path_7622" data-name="Path 7622" d="M123.318,249.529c-.08-.131-.165-.261-.25-.392a2.531,2.531,0,0,0,0-.415V248.1a10.975,10.975,0,0,1,.045-1.222.043.043,0,0,0-.085,0q-.034.568-.051,1.193v.858c-.352-.568-.71-1.08-1.085-1.614l-.33-.455a9.623,9.623,0,0,1,0-1.568c0-.568,0-1.137.034-1.7a.043.043,0,0,0-.085,0c0,.568-.045,1.137-.074,1.745a11.368,11.368,0,0,0-.034,1.245c-.864-1.171-1.773-2.3-2.7-3.41-.034-.034-.1,0-.068.057.568.722,1.137,1.466,1.659,2.222-1.051-.244-2.114-.386-3.182-.54-.057,0-.074.074,0,.08,1.137.17,2.239.455,3.353.7h0c.426.6.852,1.2,1.273,1.813.17.244.335.5.506.744h-.1l-.347-.045c-.244-.028-.494-.051-.744-.068-.511-.04-1.029-.068-1.54-.1a.043.043,0,0,0,0,.085,15.108,15.108,0,0,1,1.517.1l.8.1.352.045h.1c.284.426.568.847.858,1.267.5.744.949,1.54,1.489,2.273a.041.041,0,0,0,.068-.045A23.035,23.035,0,0,0,123.318,249.529Z" transform="translate(-83.532 -239.699)" fill="#263238"/>
      <path id="Path_7623" data-name="Path 7623" d="M124.077,243.433v-.568a9.136,9.136,0,0,1,.045-1.182c0-.062-.08-.068-.085,0,0,.386-.04.779-.057,1.165v.841a.762.762,0,0,0,0,.278.04.04,0,0,0,.074,0,1.012,1.012,0,0,0,0-.261A.8.8,0,0,0,124.077,243.433Z" transform="translate(-86.512 -239.042)" fill="#263238"/>
      <path id="Path_7624" data-name="Path 7624" d="M120.572,248.144c-.33-.057-.671-.074-1.006-.1s-.733-.063-1.1-.114a.045.045,0,1,0,0,.085c.7.045,1.4.171,2.108.2a.034.034,0,0,0,0-.068Z" transform="translate(-84.11 -241.758)" fill="#263238"/>
      <path id="Path_7625" data-name="Path 7625" d="M127.144,248.325v1.017a.71.71,0,0,0,0,.29h.034a.272.272,0,0,0,0-.136v-1.171C127.178,248.285,127.081,248.246,127.144,248.325Z" transform="translate(-87.874 -241.911)" fill="#263238"/>
      <path id="Path_7626" data-name="Path 7626" d="M108.833,286.077c-1.875-1.4-3.563-3.41-6.087-3.529-2.086-.085-3.541,1.483-4.376,3.234a17.846,17.846,0,0,0-1.023,2.876c-.375,1.318-.733,2.643-1.063,3.978-.654,2.62-1.216,5.257-1.671,7.916-.256,1.483-.489,2.972-.676,4.461a36.368,36.368,0,0,0-.438,4.546.239.239,0,0,0,.466.051c.25-1.25.358-2.535.568-3.8s.381-2.535.568-3.8c.432-2.523.926-5.046,1.495-7.541.568-2.364,1.068-4.762,1.83-7.058.568-1.648,1.421-3.575,3.205-4.166,2.705-.9,5.166,1.392,7.149,2.876A.035.035,0,1,0,108.833,286.077Z" transform="translate(-73.359 -256.703)" fill="#263238"/>
      <path id="Path_7627" data-name="Path 7627" d="M112.131,281.807s-1.7-4.939.773-5.9c3.751-1.455,13.565,9.6,11.645,26.54a96.781,96.781,0,0,1-13.185-8.877c-5.6-4.7-7.03-10.838-4.546-12.429S112.131,281.807,112.131,281.807Z" transform="translate(-78.601 -253.78)" fill="#90b645"/>
      <path id="Path_7628" data-name="Path 7628" d="M127.255,302.729a13.38,13.38,0,0,0-.915-1.7c-.318-.568-.642-1.137-.977-1.7-.654-1.137-1.3-2.233-1.966-3.336-.108-.182-.222-.358-.33-.534a.35.35,0,0,1,.04-.2c.04-.165.074-.33.114-.494.08-.364.148-.739.216-1.137.136-.722.261-1.455.455-2.171,0-.051-.074-.068-.085,0-.153.722-.381,1.438-.568,2.142-.1.352-.216.7-.307,1.051-.034.119-.063.244-.1.364-.807-1.324-1.625-2.637-2.512-3.91a1.853,1.853,0,0,0,.091-.54,6.631,6.631,0,0,1,.085-.745c.063-.568.131-1.137.21-1.671a31.6,31.6,0,0,1,.6-3.245c0-.051-.074-.068-.085,0-.273,1.063-.568,2.131-.767,3.211-.1.534-.193,1.063-.267,1.6-.034.273-.063.54-.091.807v.244c-.273-.386-.568-.767-.83-1.137-.869-1.137-1.762-2.273-2.671-3.364a.043.043,0,1,0-.068.051,59.678,59.678,0,0,1,4.262,6.251c.25.4.494.8.739,1.2l-.244-.034c-.318-.04-.636-.057-.955-.091l-1.915-.165c-1.279-.1-2.557-.176-3.836-.313a.04.04,0,1,0,0,.08c1.29.148,2.574.358,3.864.54.631.091,1.262.176,1.9.256a7.2,7.2,0,0,0,1.461.148l1.506,2.449a3.38,3.38,0,0,0-.341,0h-4.382c-.057,0-.045.085,0,.085.835,0,1.665.051,2.5.1l1.182.068.568.045a1.136,1.136,0,0,0,.523,0c.426.693.858,1.387,1.279,2.08s.79,1.279,1.2,1.915a14.776,14.776,0,0,0,1.284,1.927C127.2,302.809,127.3,302.78,127.255,302.729Z" transform="translate(-82.438 -257.698)" fill="#263238"/>
      <path id="Path_7629" data-name="Path 7629" d="M129.93,292.193a11.9,11.9,0,0,1-.341,1.608c-.136.568-.3,1.1-.477,1.631a.057.057,0,1,0,.1.034c.17-.534.318-1.074.449-1.614s.216-1.1.352-1.642C130.026,292.154,129.935,292.137,129.93,292.193Z" transform="translate(-88.728 -260.853)" fill="#263238"/>
      <path id="Path_7630" data-name="Path 7630" d="M116.74,297.447a.619.619,0,0,0-.409-.153l-.716-.1c-.443-.063-.892-.108-1.335-.165-.921-.108-1.847-.193-2.773-.313a.043.043,0,1,0,0,.085c.87.108,1.739.239,2.609.352l1.279.165.614.068a2.4,2.4,0,0,1,.7.119C116.74,297.555,116.774,297.5,116.74,297.447Z" transform="translate(-81.113 -262.822)" fill="#263238"/>
      <path id="Path_7631" data-name="Path 7631" d="M128.438,311.1c-.432-.04-.875-.051-1.313-.068h-.977a2.01,2.01,0,0,1-.415,0c-.063,0-.068.1,0,.085a1.767,1.767,0,0,1,.386,0h.341l.665.04c.432,0,.875.051,1.313.051a.054.054,0,1,0,0-.108Z" transform="translate(-87.253 -269)" fill="#263238"/>
      <path id="Path_7632" data-name="Path 7632" d="M135.039,306.112c.051-.244.1-.494.142-.744.091-.489.176-.977.267-1.461a.045.045,0,0,0-.085,0c-.108.477-.21.949-.318,1.426-.057.239-.108.477-.159.716l-.068.33a.893.893,0,0,0-.04.347c0,.04.068.074.1.034A1.819,1.819,0,0,0,135.039,306.112Z" transform="translate(-91.178 -265.912)" fill="#263238"/>
      <path id="Path_7633" data-name="Path 7633" d="M110.118,333.5l-.421,7-1.245,20.663H87.261L86.011,340.5l-.421-7Z" transform="translate(-69.945 -278.7)" fill="#455a64"/>
      <path id="Path_7634" data-name="Path 7634" d="M110.118,333.5l-.421,7H86.011l-.421-7Z" transform="translate(-69.945 -278.7)" fill="#263238"/>
      <rect id="Rectangle_8030" data-name="Rectangle 8030" width="28.438" height="7.007" transform="translate(13.69 49.844)" fill="#455a64"/>
    </g>
    <g id="freepik--Folder--inject-97" transform="translate(225.426 78.357)">
      <rect id="Rectangle_8031" data-name="Rectangle 8031" width="157.761" height="101.999" transform="translate(0 72.083)" fill="#90b645"/>
      <path id="Path_7635" data-name="Path 7635" d="M543.359,246.13h49.715v10.565H540.5Z" transform="translate(-435.313 -184.611)" fill="#90b645"/>
      <g id="Group_8306" data-name="Group 8306" transform="translate(0 61.519)" opacity="0.1">
        <rect id="Rectangle_8032" data-name="Rectangle 8032" width="157.761" height="101.999" transform="translate(0 10.565)"/>
        <path id="Path_7636" data-name="Path 7636" d="M543.359,246.13h49.715v10.565H540.5Z" transform="translate(-435.313 -246.13)"/>
      </g>
      <path id="Path_7637" data-name="Path 7637" d="M398.712,142.892a11.087,11.087,0,0,1,0-5.012,9.66,9.66,0,0,1,.284,2.506A9.917,9.917,0,0,1,398.712,142.892Z" transform="translate(-373.979 -137.88)" fill="#263238"/>
      <path id="Path_7638" data-name="Path 7638" d="M407.91,145.992a9.9,9.9,0,0,1,1.006-2.313,9.737,9.737,0,0,1,1.495-2.029,9.66,9.66,0,0,1-1.006,2.313A9.827,9.827,0,0,1,407.91,145.992Z" transform="translate(-378.074 -139.507)" fill="#263238"/>
      <path id="Path_7639" data-name="Path 7639" d="M414.4,154.1a9.878,9.878,0,0,1,2.023-1.5,10.161,10.161,0,0,1,2.3-1,11.111,11.111,0,0,1-4.319,2.5Z" transform="translate(-380.876 -143.803)" fill="#263238"/>
      <path id="Path_7640" data-name="Path 7640" d="M416.65,164.873a10.11,10.11,0,0,1,2.5-.284,9.661,9.661,0,0,1,2.506.284,10.143,10.143,0,0,1-2.5.284A9.922,9.922,0,0,1,416.65,164.873Z" transform="translate(-381.847 -149.409)" fill="#263238"/>
      <path id="Path_7641" data-name="Path 7641" d="M414.06,174.08a9.889,9.889,0,0,1,2.313,1,10.073,10.073,0,0,1,2.029,1.5,11.241,11.241,0,0,1-4.342-2.5Z" transform="translate(-380.729 -153.507)" fill="#263238"/>
      <path id="Path_7642" data-name="Path 7642" d="M407.33,180.56a10.126,10.126,0,0,1,1.5,2.029,9.861,9.861,0,0,1,1.006,2.307A11.088,11.088,0,0,1,407.33,180.56Z" transform="translate(-377.824 -156.305)" fill="#263238"/>
      <path id="Path_7643" data-name="Path 7643" d="M398.033,182.81a11.088,11.088,0,0,1,0,5.012,9.66,9.66,0,0,1-.284-2.506A9.917,9.917,0,0,1,398.033,182.81Z" transform="translate(-373.687 -157.276)" fill="#263238"/>
      <path id="Path_7644" data-name="Path 7644" d="M387.371,180.22a9.9,9.9,0,0,1-1.006,2.313,9.712,9.712,0,0,1-1.495,2.035,9.947,9.947,0,0,1,1.006-2.319,10.259,10.259,0,0,1,1.495-2.029Z" transform="translate(-368.128 -156.158)" fill="#263238"/>
      <path id="Path_7645" data-name="Path 7645" d="M379.492,173.49a10.07,10.07,0,0,1-2.029,1.5A9.661,9.661,0,0,1,375.15,176,11.27,11.27,0,0,1,379.492,173.49Z" transform="translate(-363.932 -153.253)" fill="#263238"/>
      <path id="Path_7646" data-name="Path 7646" d="M376.732,164.2a10.19,10.19,0,0,1-2.506.284,9.916,9.916,0,0,1-2.506-.278,9.928,9.928,0,0,1,2.506-.29A10.19,10.19,0,0,1,376.732,164.2Z" transform="translate(-362.451 -149.121)" fill="#263238"/>
      <path id="Path_7647" data-name="Path 7647" d="M379.822,153.541a10.006,10.006,0,0,1-2.313-1.006,10.258,10.258,0,0,1-2.029-1.495,9.888,9.888,0,0,1,2.313,1A9.757,9.757,0,0,1,379.822,153.541Z" transform="translate(-364.074 -143.561)" fill="#263238"/>
      <path id="Path_7648" data-name="Path 7648" d="M387.952,145.706a9.877,9.877,0,0,1-1.5-2.023,9.66,9.66,0,0,1-1.012-2.313,9.759,9.759,0,0,1,1.5,2.029,10.121,10.121,0,0,1,1.012,2.307Z" transform="translate(-368.374 -139.387)" fill="#263238"/>
      <rect id="Rectangle_8033" data-name="Rectangle 8033" width="102.607" height="131.71" transform="translate(44.055 22.334)" fill="#ebebeb"/>
      <path id="Path_7649" data-name="Path 7649" d="M535.32,308.678l-102.6.182h-.182v-.182l-.1-131.71v-.278h.278l102.6.063h.216v.216Zm0,0-.21-131.71.21.21-102.6.068.278-.278-.1,131.71-.176-.176Z" transform="translate(-388.664 -154.634)" fill="#dbdbdb"/>
      <path id="Path_7650" data-name="Path 7650" d="M452.68,226.632l40.077-.1,40.077.1-40.077.1Z" transform="translate(-397.401 -176.15)" fill="#c7c7c7"/>
      <path id="Path_7651" data-name="Path 7651" d="M452.68,232.382l40.077-.1,40.077.1-40.077.1Z" transform="translate(-397.401 -178.632)" fill="#c7c7c7"/>
      <path id="Path_7652" data-name="Path 7652" d="M452.68,238.142l40.077-.1,40.077.1-40.077.1Z" transform="translate(-397.401 -181.119)" fill="#c7c7c7"/>
      <path id="Path_7653" data-name="Path 7653" d="M452.68,243.892l40.077-.1,40.077.1-40.077.1Z" transform="translate(-397.401 -183.601)" fill="#c7c7c7"/>
      <path id="Path_7654" data-name="Path 7654" d="M452.68,249.642l40.077-.1,40.077.1-40.077.1Z" transform="translate(-397.401 -186.083)" fill="#c7c7c7"/>
      <path id="Path_7655" data-name="Path 7655" d="M452.68,255.392l40.077-.1,40.077.1-40.077.1Z" transform="translate(-397.401 -188.566)" fill="#c7c7c7"/>
      <path id="Path_7656" data-name="Path 7656" d="M452.68,261.142l40.077-.1,40.077.1-40.077.1Z" transform="translate(-397.401 -191.048)" fill="#c7c7c7"/>
      <path id="Path_7657" data-name="Path 7657" d="M452.68,266.9l40.077-.1,40.077.1-40.077.1Z" transform="translate(-397.401 -193.535)" fill="#c7c7c7"/>
      <path id="Path_7658" data-name="Path 7658" d="M452.68,272.652l40.077-.1,40.077.1-40.077.1Z" transform="translate(-397.401 -196.017)" fill="#c7c7c7"/>
      <path id="Path_7659" data-name="Path 7659" d="M452.68,278.4l40.077-.1,40.077.1-40.077.1Z" transform="translate(-397.401 -198.499)" fill="#c7c7c7"/>
      <path id="Path_7660" data-name="Path 7660" d="M452.68,284.152l40.077-.1,40.077.1-40.077.1Z" transform="translate(-397.401 -200.981)" fill="#c7c7c7"/>
      <path id="Path_7661" data-name="Path 7661" d="M452.68,289.9l40.077-.1,40.077.1-40.077.1Z" transform="translate(-397.401 -203.464)" fill="#c7c7c7"/>
      <path id="Path_7662" data-name="Path 7662" d="M452.68,295.652l40.077-.1,40.077.1-40.077.1Z" transform="translate(-397.401 -205.946)" fill="#c7c7c7"/>
      <path id="Path_7663" data-name="Path 7663" d="M452.68,301.407l40.077-.1,40.077.1-40.077.1Z" transform="translate(-397.401 -208.432)" fill="#c7c7c7"/>
      <path id="Path_7664" data-name="Path 7664" d="M452.68,307.157l40.077-.1,40.077.1-40.077.1Z" transform="translate(-397.401 -210.915)" fill="#c7c7c7"/>
      <rect id="Rectangle_8034" data-name="Rectangle 8034" width="6.081" height="13.719" transform="translate(63.752 86.336)" fill="#90b645"/>
      <rect id="Rectangle_8035" data-name="Rectangle 8035" width="6.081" height="21.033" transform="translate(75.027 79.022)" fill="#90b645"/>
      <rect id="Rectangle_8036" data-name="Rectangle 8036" width="6.081" height="29.228" transform="translate(86.302 70.827)" fill="#90b645"/>
      <rect id="Rectangle_8037" data-name="Rectangle 8037" width="6.081" height="32.746" transform="translate(97.583 67.31)" fill="#90b645"/>
      <rect id="Rectangle_8038" data-name="Rectangle 8038" width="6.081" height="39.014" transform="translate(108.858 61.041)" fill="#90b645"/>
      <rect id="Rectangle_8039" data-name="Rectangle 8039" width="6.081" height="45.208" transform="translate(120.133 54.847)" fill="#90b645"/>
      <path id="Path_7665" data-name="Path 7665" d="M456.215,222.68l.159,12.963.108,12.969c.074,8.644.1,17.288.114,25.932l-.381-.375h19.5l19.493.045,19.5.125,19.493.222-19.493.222-19.5.125-19.493.045H455.84v-.375q0-12.966.108-25.932l.114-12.969Z" transform="translate(-398.765 -174.488)" fill="#c7c7c7"/>
      <rect id="Rectangle_8040" data-name="Rectangle 8040" width="6.081" height="0.551" transform="translate(63.752 102.794)" fill="#c7c7c7"/>
      <rect id="Rectangle_8041" data-name="Rectangle 8041" width="6.081" height="0.551" transform="translate(75.027 102.794)" fill="#c7c7c7"/>
      <rect id="Rectangle_8042" data-name="Rectangle 8042" width="6.081" height="0.551" transform="translate(86.302 102.794)" fill="#c7c7c7"/>
      <rect id="Rectangle_8043" data-name="Rectangle 8043" width="6.081" height="0.551" transform="translate(97.583 102.794)" fill="#c7c7c7"/>
      <rect id="Rectangle_8044" data-name="Rectangle 8044" width="6.081" height="0.551" transform="translate(108.858 102.794)" fill="#c7c7c7"/>
      <rect id="Rectangle_8045" data-name="Rectangle 8045" width="6.081" height="0.551" transform="translate(120.133 102.794)" fill="#c7c7c7"/>
      <path id="Path_7666" data-name="Path 7666" d="M468.791,268.55a73.531,73.531,0,0,0,8.877-.676,87.26,87.26,0,0,0,8.746-1.574,75.67,75.67,0,0,0,16.7-5.882,59.427,59.427,0,0,0,14.588-9.94l.824-.744.779-.79,1.551-1.586c.955-1.137,1.983-2.194,2.842-3.41a60.467,60.467,0,0,0,4.978-7.388h.051a53.037,53.037,0,0,1-10.565,14.361,52.294,52.294,0,0,1-6.945,5.683,59.278,59.278,0,0,1-7.734,4.546,75.584,75.584,0,0,1-34.706,7.388Z" transform="translate(-404.352 -180.48)" fill="#263238"/>
      <path id="Path_7667" data-name="Path 7667" d="M572.516,240.222l-.841.21-1.034-4.149-4.063,1.336-.267-.824,4.944-1.625Z" transform="translate(-446.455 -179.88)" fill="#263238"/>
      <rect id="Rectangle_8046" data-name="Rectangle 8046" width="83.586" height="3.381" transform="translate(137.148 123.833) rotate(180)" fill="#dbdbdb"/>
      <rect id="Rectangle_8047" data-name="Rectangle 8047" width="47.055" height="3.381" transform="translate(100.624 132.369) rotate(180)" fill="#dbdbdb"/>
      <rect id="Rectangle_8048" data-name="Rectangle 8048" width="47.055" height="3.381" transform="translate(118.883 40.27) rotate(180)" fill="#dbdbdb"/>
      <path id="Path_7668" data-name="Path 7668" d="M501.2,296.451,398.59,296.4l.068-131.71,76.181.04,26.409,25.108Z" transform="translate(-374.051 -149.454)" fill="#90b645"/>
      <path id="Path_7669" data-name="Path 7669" d="M501.2,296.451,398.59,296.4l.068-131.71,76.181.04,26.409,25.108Z" transform="translate(-374.051 -149.454)" fill="#fff" opacity="0.6"/>
      <path id="Path_7670" data-name="Path 7670" d="M532.751,164.76l26.409,25.108-26.42-.011Z" transform="translate(-431.963 -149.484)" fill="#90b645"/>
      <path id="Path_7671" data-name="Path 7671" d="M532.751,164.76l26.409,25.108-26.42-.011Z" transform="translate(-431.963 -149.484)" fill="#fff" opacity="0.4"/>
      <rect id="Rectangle_8049" data-name="Rectangle 8049" width="57.046" height="3.381" transform="translate(91.593 40.872) rotate(180)" fill="#fff"/>
      <rect id="Rectangle_8050" data-name="Rectangle 8050" width="57.046" height="3.381" transform="translate(91.652 49.285) rotate(-179.97)" fill="#fff"/>
      <rect id="Rectangle_8051" data-name="Rectangle 8051" width="57.046" height="3.381" transform="translate(91.64 57.821) rotate(-179.97)" fill="#fff"/>
      <rect id="Rectangle_8052" data-name="Rectangle 8052" width="83.586" height="3.381" transform="translate(118.172 66.368) rotate(-179.97)" fill="#fff"/>
      <rect id="Rectangle_8053" data-name="Rectangle 8053" width="83.586" height="3.381" transform="translate(118.171 74.91) rotate(-179.97)" fill="#fff"/>
      <rect id="Rectangle_8054" data-name="Rectangle 8054" width="83.586" height="3.381" transform="translate(118.17 83.446) rotate(-179.97)" fill="#fff"/>
      <rect id="Rectangle_8055" data-name="Rectangle 8055" width="83.586" height="3.381" transform="translate(118.163 91.982) rotate(-179.97)" fill="#fff"/>
      <rect id="Rectangle_8056" data-name="Rectangle 8056" width="83.586" height="3.381" transform="translate(118.156 100.518) rotate(-179.97)" fill="#fff"/>
      <rect id="Rectangle_8057" data-name="Rectangle 8057" width="83.586" height="3.381" transform="translate(118.155 109.059) rotate(-179.97)" fill="#fff"/>
      <rect id="Rectangle_8058" data-name="Rectangle 8058" width="83.586" height="3.381" transform="translate(118.153 117.595) rotate(-179.97)" fill="#fff"/>
      <rect id="Rectangle_8059" data-name="Rectangle 8059" width="83.586" height="3.381" transform="translate(118.147 126.125) rotate(-179.97)" fill="#fff"/>
      <rect id="Rectangle_8060" data-name="Rectangle 8060" width="83.586" height="3.381" transform="translate(118.14 134.661) rotate(-179.97)" fill="#fff"/>
      <path id="Path_7672" data-name="Path 7672" d="M356.06,373.147H513.821l10.854-93.537H366.915Z" transform="translate(-355.691 -199.065)" fill="#90b645"/>
      <path id="Path_7673" data-name="Path 7673" d="M564.228,262.56h49.721l-1.125,9.69H560.25Z" transform="translate(-443.839 -191.704)" fill="#90b645"/>
    </g>
    <g id="freepik--Clips--inject-97" transform="translate(343.087 46.578)">
      <path id="Path_7674" data-name="Path 7674" d="M610.681,194.623a11.52,11.52,0,0,1-3.6-6.126,11.673,11.673,0,0,1,1.421-8.434,10.667,10.667,0,0,1,6.859-5.024l15.549-3.41.438,2.012-15.543,3.41a8.61,8.61,0,0,0-5.535,4.069,9.661,9.661,0,0,0-1.171,6.933,9.241,9.241,0,0,0,10.684,7.195l29.438-6.445a7.083,7.083,0,1,0-3.029-13.838l-28.472,6.251a5.734,5.734,0,0,0-3.484,2.216,4.746,4.746,0,0,0-.75,3.847c.625,2.842,3.3,4.41,6.376,3.739l24.482-5.359.443,2.017L620.3,193.032a7.142,7.142,0,0,1-8.837-5.314c-.881-3.944,1.637-7.6,5.808-8.525l28.478-6.251a9.149,9.149,0,1,1,3.91,17.875l-29.439,6.443A10.923,10.923,0,0,1,610.681,194.623Z" transform="translate(-581.607 -120.67)" fill="#455a64"/>
      <path id="Path_7675" data-name="Path 7675" d="M580.982,129.93a11.525,11.525,0,0,1-6.717,2.319,11.679,11.679,0,0,1-7.99-3.063,10.639,10.639,0,0,1-3.563-7.718l-.261-15.912,2.063-.034.262,15.912a8.57,8.57,0,0,0,2.893,6.223,9.581,9.581,0,0,0,6.564,2.523,9.239,9.239,0,0,0,9.167-9.053l-.494-30.12a7.082,7.082,0,1,0-14.162.227l.472,29.148a5.717,5.717,0,0,0,1.483,3.847,4.734,4.734,0,0,0,3.62,1.495c2.91-.045,4.978-2.364,4.927-5.507l-.409-25.062,2.069-.034.4,25.062c.074,4.268-2.921,7.541-6.956,7.6s-7.126-3.1-7.2-7.388l-.472-29.143a9.149,9.149,0,1,1,18.3-.3l.487,30.12a10.911,10.911,0,0,1-4.478,8.848Z" transform="translate(-562.45 -81.96)" fill="#263238"/>
    </g>
    <g id="freepik--Character--inject-97" transform="translate(73.805 54.584)">
      <path id="Path_7676" data-name="Path 7676" d="M163.32,116.445c-.977,5.615-3.092,12.184-1.381,17.839,1.347,4.427,4.933,7.746,8.786,10.076,8.479,5.115,20.987,7.246,28.415-.87,2.967-3.245,4.342-10.61.523-13.855-1.966-1.665-4.473-2.313-6.82-3.273a10.4,10.4,0,0,1-6.251-6.507c-2.148-6.155-1.029-10.326-.784-16.657a4.507,4.507,0,0,0-1.137-3.478,12.172,12.172,0,0,0-7.172-3.671c-2.813-.068-5.8,2.154-8.149,3.472a7.412,7.412,0,0,0-4.1,5.6C164.576,108.9,163.967,112.677,163.32,116.445Z" transform="translate(-119.989 -96.047)" fill="#263238"/>
      <path id="Path_7677" data-name="Path 7677" d="M161.135,124.9c1.228-5.115,2.546-10.139,3.836-15.208,0-.034.057,0,.051,0-.938,4.2-1.824,8.411-2.842,12.6-.977,4.1-2.273,8.257-2.876,12.44-1.375,9.377,7.8,14.435,15.856,15,.369,0,.284.6-.085.568-7.053-.716-15.14-4.188-16.288-12.1C158.2,133.881,160.152,129.056,161.135,124.9Z" transform="translate(-118.862 -101.93)" fill="#263238"/>
      <path id="Path_7678" data-name="Path 7678" d="M203.259,107.6a.08.08,0,1,1,.159,0c-.426,5.2-1.409,11.224.96,16.106a13.236,13.236,0,0,0,5.359,5.711c1.841,1.04,3.893,1.37,5.871,2.029,7.74,2.569,6.45,13.3.148,16.742-.131.074-.261-.153-.131-.233,4.473-2.716,6.558-8.428,3.8-13.162-2.216-3.808-7.462-3.359-10.843-5.683C201.571,124.274,202.145,115.09,203.259,107.6Z" transform="translate(-137.816 -101)" fill="#263238"/>
      <path id="Path_7679" data-name="Path 7679" d="M224.146,412.964c-1.267.409-37.275-.057-38.645-.949-.523-.33-.762-5.581-.87-11.934v-.2c0-1.307-.04-2.654-.04-4.024v-.568c-.051-9.167.1-18.68.1-18.68l24.09.239-.727,18.51v.733l-.142,3.83v.392s13.707,6.342,15.1,7.479S225.407,412.561,224.146,412.964Z" transform="translate(-130.043 -217.166)" fill="#ad6359"/>
      <path id="Path_7680" data-name="Path 7680" d="M235.043,422.6c-.1,0-.148-.051-.154-.08Z" transform="translate(-151.761 -236.985)" fill="#90b645"/>
      <path id="Path_7681" data-name="Path 7681" d="M224.209,432.369c-1.262.409-37.269-.057-38.645-.949-.46-.29-.7-4.473-.824-9.86,6.6,1.375,32.172,6.547,32.871,4.365.278-.864-1.909-2.347-3.3-3.188a94.908,94.908,0,0,1,8.706,4.467C224.407,428.334,225.476,431.966,224.209,432.369Z" transform="translate(-130.112 -236.57)" fill="#90b645"/>
      <path id="Path_7682" data-name="Path 7682" d="M171.76,194.08s5.41,60.854,6.291,65.5c.2,1.057.33,6.82.415,14.208.188,16.128.074,45.225.074,45.225h25.386s-.756-50.408-1.881-59.672-8.3-65.235-8.3-65.235Z" transform="translate(-124.508 -138.368)" fill="#37474f"/>
      <path id="Path_7683" data-name="Path 7683" d="M208.644,405.973c-3.978-.08-2.842-.114-6.786-.153-1.938,0-14.679-.125-16.481.17a.045.045,0,0,0,0,.085c1.807.3,14.549.188,16.481.17,3.978-.04,2.841-.074,6.786-.153a.063.063,0,0,0,0-.119Z" transform="translate(-130.374 -229.764)" fill="#263238"/>
      <path id="Path_7684" data-name="Path 7684" d="M185.8,287.942l-.1-11.031c0-3.563,0-7.132-.188-10.7-.347-7.217-1.807-14.31-2.842-21.442s-1.9-14.293-2.694-21.465c-.881-8.041-1.659-16.094-2.489-24.141,0-.057-.091-.057-.085,0,1.2,14.372,2.535,28.739,4.546,43.02q.744,5.331,1.62,10.639c.568,3.58,1.182,7.166,1.466,10.8s.318,7.1.358,10.656q.051,5.524.108,11.042c.08,8.172.159,20.749.239,28.927a.123.123,0,0,0,.244,0C185.907,306.929,185.85,295.233,185.8,287.942Z" transform="translate(-126.943 -140.546)" fill="#263238"/>
      <path id="Path_7685" data-name="Path 7685" d="M162.35,194.067s10.758,60.854,11.639,65.5c.2,1.057.33,6.82.415,14.208h0L186.5,194.05Z" transform="translate(-120.446 -138.355)" fill="#263238"/>
      <path id="Path_7686" data-name="Path 7686" d="M122.682,406.268c-1.307-.2-33.229-16.884-34.036-18.294-.318-.528,1.841-5.319,4.615-11.036l.091-.182c.568-1.176,11.968-20.4,11.968-20.4l19.629,11.525-10.889,19.408-.188.341s9.36,11.855,10.087,13.492S123.995,406.484,122.682,406.268Z" transform="translate(-88.615 -208.424)" fill="#ad6359"/>
      <path id="Path_7687" data-name="Path 7687" d="M122.682,423.748c-1.313-.2-33.223-16.884-34.036-18.294-.273-.449,1.262-4.018,3.444-8.6,4.546,3.461,26.665,20.05,28.279,18.328.341-.369.085-1.228-.364-2.148a65.144,65.144,0,0,1,3.978,5.575C124.682,420.236,123.995,423.958,122.682,423.748Z" transform="translate(-88.615 -225.903)" fill="#90b645"/>
      <path id="Path_7688" data-name="Path 7688" d="M120.691,316.513,97.43,302.141s26.909-38.508,27.04-41.929c.188-5.115,2.626-26.074,4.677-43.066,0,0-3.887-9.2,3.381-23.1h29.148s-1.955,13.224-5.3,21.6a38.8,38.8,0,0,0-6.479,2.961s-2.9,37.889-3.006,42.623C146.673,270.572,120.691,316.513,120.691,316.513Z" transform="translate(-92.42 -138.355)" fill="#37474f"/>
      <path id="Path_7689" data-name="Path 7689" d="M125.671,391.022c-3.359-2.1-2.364-1.546-5.746-3.614-1.654-1.012-12.5-7.649-14.208-8.32a.04.04,0,0,0-.04.068c1.4,1.188,12.389,7.632,14.06,8.61,3.41,2.006,2.461,1.392,5.9,3.353a.057.057,0,0,0,.034-.1Z" transform="translate(-95.974 -218.234)" fill="#263238"/>
      <path id="Path_7690" data-name="Path 7690" d="M197.3,231.06a48.16,48.16,0,0,0-7.587,3.535.085.085,0,0,0,.074.153c2.552-1.1,5.16-2.148,7.649-3.41a.17.17,0,0,0-.136-.279Z" transform="translate(-132.241 -154.332)" fill="#263238"/>
      <path id="Path_7691" data-name="Path 7691" d="M196.175,213.459c.25-1.523.455-3.046.568-4.586a41.863,41.863,0,0,0-.091-8.6.074.074,0,1,0-.148,0,79.1,79.1,0,0,1-.7,11.883c-.284,1.887-1.239,4.74.744,5.029s3.319-4.473,3.563-5.78a43.428,43.428,0,0,0,.426-11.258c0-.091-.165-.108-.159,0,0,3.035-.176,5.683-.432,8.525-.119,1.313-1.176,8.593-3.461,8.059-.381-.085-.568-.466-.637-1.04a9.149,9.149,0,0,1,.307-2.233" transform="translate(-134.682 -140.953)" fill="#263238"/>
      <path id="Path_7692" data-name="Path 7692" d="M196.957,229.635a12.69,12.69,0,0,0-.511,1.506,3.33,3.33,0,0,0-.216,1.239.091.091,0,0,0,.159.034,4.319,4.319,0,0,0,.528-1.2c.176-.466.358-.932.517-1.4a.256.256,0,0,0-.477-.171Z" transform="translate(-135.072 -153.657)" fill="#263238"/>
      <path id="Path_7693" data-name="Path 7693" d="M141.714,197.28a26.646,26.646,0,0,0-2.188,4.8,29.4,29.4,0,0,0-1.3,5.115c-.165.864-.222,1.739-.318,2.609a15.644,15.644,0,0,0-.057,2.631,27.7,27.7,0,0,0,.608,5.211v.057q-1.006,11.025-2.091,22.039T134.2,261.771l-.074.688-.034.347a.989.989,0,0,1-.074.369,12.117,12.117,0,0,1-.665,1.279c-.466.8-.949,1.591-1.432,2.375q-1.449,2.358-2.938,4.694-2.966,4.671-6.007,9.3c-4.018,6.189-8.11,12.332-12.207,18.47l11.895-18.674,5.9-9.354q1.478-2.341,2.921-4.694c.477-.79.955-1.58,1.415-2.375.216-.386.466-.818.614-1.137a.836.836,0,0,0,.057-.3l.034-.347.068-.688q1.046-11.014,2.171-22.022t2.273-22.01v.051a27.528,27.528,0,0,1-.568-5.28c-.04-.887.045-1.773.091-2.654a16.577,16.577,0,0,1,.375-2.631,29.888,29.888,0,0,1,1.4-5.115,27.2,27.2,0,0,1,2.29-4.779Z" transform="translate(-98.179 -139.749)" fill="#263238"/>
      <path id="Path_7694" data-name="Path 7694" d="M187.517,135.677c4.336,2.336,24.437,8.525,31.552,8.24,6.655-.244,21.255-8.1,21.942-10.229.659-2.017-3.052-14.446-5.234-13.815S220.6,129.92,217.74,130.3c-1.7.222-17.759-.3-25.988,0C184.278,130.562,181.516,132.438,187.517,135.677Z" transform="translate(-129.9 -106.323)" fill="#ad6359"/>
      <path id="Path_7695" data-name="Path 7695" d="M198.959,148.64l6.484-11.934s-14.929-.233-19.322.938c-4.961,1.318-3.205,3.569.995,6.052S198.959,148.64,198.959,148.64Z" transform="translate(-129.407 -113.591)" fill="#90b645"/>
      <path id="Path_7696" data-name="Path 7696" d="M191.8,137.577a1.023,1.023,0,0,1-2.046,0,.756.756,0,0,1,.04-.256c.568-.08,1.216-.148,1.892-.2A.966.966,0,0,1,191.8,137.577Zm6.115-.779h0a1.023,1.023,0,1,0,1.7.779,1,1,0,0,0-.409-.813h0Zm9.013-.068H205.8a1.012,1.012,0,0,0-.466.852,1.023,1.023,0,0,0,.852,1.012l.921-1.7a.676.676,0,0,0-.17-.159Zm-19.743,5.933c.159.108.307.222.477.318a.96.96,0,0,0-.477-.318Zm7.485-.051a1.023,1.023,0,1,0,1.029,1.023,1.023,1.023,0,0,0-1.029-1.023Zm7.791,0a1.023,1.023,0,1,0,1.023,1.023,1.023,1.023,0,0,0-1.023-1.023Z" transform="translate(-131.169 -113.61)" fill="#fff"/>
      <path id="Path_7697" data-name="Path 7697" d="M212.937,137.651c-.29.381-2.37,4.063-2.8,4.876s-2.245,4.109-2.626,4.984c0,.034.034.068.057.034.534-.784,2.37-4.109,2.841-4.922s2.438-4.512,2.6-4.944A.04.04,0,0,0,212.937,137.651Z" transform="translate(-139.942 -114.003)" fill="#263238"/>
      <path id="Path_7698" data-name="Path 7698" d="M200.958,146.215l-2.012,3.717s-7.661-2.449-11.86-4.933c-3.5-2.074-5.3-3.978-2.932-5.319Z" transform="translate(-129.394 -114.883)" opacity="0.1"/>
      <path id="Path_7699" data-name="Path 7699" d="M187.554,164.008l.881,6.871-29.785-.938s1.506-21.954,10.087-30.234c4.3-4.137,9.008-3.529,11.849-.29.716.824,9.161,11.855,9.843,16.515C191.026,160.041,187.554,164.008,187.554,164.008Z" transform="translate(-118.849 -113.638)" fill="#90b645"/>
      <path id="Path_7700" data-name="Path 7700" d="M171.793,137.948a1.029,1.029,0,0,1-1.023,1.029.966.966,0,0,1-.489-.131A9.347,9.347,0,0,1,171.793,137.948Zm5.808-.358a.955.955,0,0,0-.068.358,1.029,1.029,0,0,0,1.023,1.029.989.989,0,0,0,.818-.421,7.189,7.189,0,0,0-1.773-.966Zm-14.208,11.332c-.256.631-.494,1.273-.716,1.915a.887.887,0,0,0,.324.057,1.023,1.023,0,0,0,1.023-1.029,1.012,1.012,0,0,0-.654-.943Zm7.388-.08a1.029,1.029,0,1,1-.011,0Zm7.786,0a1.029,1.029,0,1,1-.011,0Zm7.791,0a1.037,1.037,0,1,1-.011,0ZM166.9,142.983a.978.978,0,0,0-.568.176h0c-.148.216-.284.426-.421.654a.872.872,0,0,0,0,.17,1.023,1.023,0,1,0,1.023-1.023Zm7.791,0a1.059,1.059,0,1,1-.028,0Zm7.786,0a1.065,1.065,0,1,1-.028,0Zm-19.5,17.776A1.029,1.029,0,1,0,164,161.788,1.029,1.029,0,0,0,162.979,160.76Zm7.791,0a1.029,1.029,0,1,0,1.023,1.029,1.029,1.029,0,0,0-1.023-1.029Zm7.786,0a1.029,1.029,0,1,0,1.023,1.029,1.029,1.029,0,0,0-1.023-1.029Zm7.791,0a1.023,1.023,0,1,0,.725.3A1.029,1.029,0,0,0,186.347,160.76ZM166.9,154.9a1.023,1.023,0,1,0,1.029,1.023A1.023,1.023,0,0,0,166.9,154.9Zm7.791,0a1.059,1.059,0,1,1-.028,0Zm7.786,0a1.065,1.065,0,1,1-.028,0Zm8.076,1.375a8.118,8.118,0,0,0-.352-1.37,1.023,1.023,0,0,0,.068,2.04.983.983,0,0,0,.341-.063c-.04-.2-.057-.4-.085-.608ZM159.1,166.806c-.1.8-.176,1.478-.233,2.023h0a.9.9,0,0,0,.216,0,1.029,1.029,0,0,0,0-2.052Zm7.8,0a1.029,1.029,0,1,0,1.029,1.023,1.029,1.029,0,0,0-1.029-1.023Zm7.791,0a1.059,1.059,0,1,1-.028,0Zm7.786,0a1.065,1.065,0,1,1-.028,0Z" transform="translate(-118.944 -113.981)" fill="#fff"/>
      <path id="Path_7701" data-name="Path 7701" d="M193.688,180.58a32.334,32.334,0,0,0-4.728.676c-.773.182-1.529.4-2.273.631-.375.114-.756.216-1.137.318a4.95,4.95,0,0,1-1.222.2.028.028,0,0,0,0,.057,8.054,8.054,0,0,0,1.171,0,9.393,9.393,0,0,0,1.137-.188c.784-.176,1.563-.392,2.347-.568,1.574-.369,3.154-.744,4.757-1C193.791,180.7,193.791,180.574,193.688,180.58Z" transform="translate(-129.922 -132.54)" fill="#263238"/>
      <path id="Path_7702" data-name="Path 7702" d="M201.68,182.993a35.079,35.079,0,0,0-3.938-.273c-.659,0-1.313.028-1.966.08q-.466.034-.938.085c-.347.034-.688.119-1.029.153-.034,0-.04.057,0,.057h7.871C201.748,183.1,201.742,183,201.68,182.993Z" transform="translate(-134.015 -133.464)" fill="#263238"/>
      <path id="Path_7703" data-name="Path 7703" d="M293.07,128.584q-46.032-10.764-91.1-21.124c-11.3,37.042-8.252,80.131-24.1,115.252q46.032,10.764,91.1,21.124C280.272,206.794,277.226,163.722,293.07,128.584Z" transform="translate(-127.146 -100.974)" fill="#ebebeb"/>
      <path id="Path_7704" data-name="Path 7704" d="M202.94,283.124q25.005,5.74,49.783,11.366c.222-.977.443-1.961.654-2.944q-24.727-5.62-49.647-11.326C203.474,281.232,203.213,282.169,202.94,283.124Z" transform="translate(-137.969 -175.554)" fill="#dbdbdb"/>
      <path id="Path_7705" data-name="Path 7705" d="M206.29,270.212q24.818,5.683,49.442,11.247.279-1.489.568-2.989-24.6-5.558-49.34-11.19C206.745,268.257,206.523,269.241,206.29,270.212Z" transform="translate(-139.415 -169.968)" fill="#dbdbdb"/>
      <path id="Path_7706" data-name="Path 7706" d="M209.14,257.078q24.664,5.6,49.181,11.133.25-1.506.489-3.018-24.494-5.524-49.1-11.093Q209.43,255.595,209.14,257.078Z" transform="translate(-140.645 -164.278)" fill="#dbdbdb"/>
      <path id="Path_7707" data-name="Path 7707" d="M211.57,243.782q35.968,8.127,71.708,16.157.216-1.529.415-3.046-35.74-8.03-71.606-16.123C211.905,241.776,211.74,242.776,211.57,243.782Z" transform="translate(-141.694 -158.524)" fill="#dbdbdb"/>
      <path id="Path_7708" data-name="Path 7708" d="M213.7,230.355q35.8,8.076,71.526,16.083l.392-3.057q-35.706-8.013-71.481-16.06Q213.927,228.843,213.7,230.355Z" transform="translate(-142.614 -152.717)" fill="#dbdbdb"/>
      <path id="Path_7709" data-name="Path 7709" d="M215.6,216.846q35.752,8.041,71.441,16.043.2-1.529.4-3.052L216.009,213.8Z" transform="translate(-143.434 -146.881)" fill="#dbdbdb"/>
      <path id="Path_7710" data-name="Path 7710" d="M217.38,203.292l71.447,16.049c.136-1.017.278-2.029.421-3.046l-71.47-16.055C217.647,201.24,217.511,202.275,217.38,203.292Z" transform="translate(-144.202 -141.027)" fill="#dbdbdb"/>
      <path id="Path_7711" data-name="Path 7711" d="M219.14,189.732q35.723,8.024,71.526,16.089.233-1.517.466-3.023-35.9-8.1-71.606-16.117Q219.339,188.209,219.14,189.732Z" transform="translate(-144.962 -135.173)" fill="#dbdbdb"/>
      <path id="Path_7712" data-name="Path 7712" d="M221,176.21q35.8,8.036,71.737,16.168.261-1.5.534-2.995-36.053-8.155-71.839-16.214Q221.188,174.687,221,176.21Z" transform="translate(-145.765 -129.341)" fill="#dbdbdb"/>
      <path id="Path_7713" data-name="Path 7713" d="M222.94,162.758q35.877,8.087,72.027,16.293.3-1.483.625-2.961-36.246-8.246-72.163-16.35C223.258,160.746,223.1,161.752,222.94,162.758Z" transform="translate(-146.603 -123.543)" fill="#dbdbdb"/>
      <path id="Path_7714" data-name="Path 7714" d="M225.19,149.424q36.025,8.155,72.4,16.452.358-1.455.733-2.91-36.5-8.354-72.578-16.526C225.554,147.435,225.372,148.429,225.19,149.424Z" transform="translate(-147.574 -117.802)" fill="#dbdbdb"/>
      <path id="Path_7715" data-name="Path 7715" d="M227.79,136.258q36.218,8.246,72.862,16.646c.284-.955.568-1.9.87-2.842q-36.8-8.473-73.1-16.742C228.216,134.275,228,135.269,227.79,136.258Z" transform="translate(-148.696 -112.138)" fill="#dbdbdb"/>
      <path id="Path_7716" data-name="Path 7716" d="M185.182,133.453c.153.568,3.075,4.3,5.751,4.1.87-.074.7-4.848.7-4.848l.068-.352.955-4.978-5.893-3.546-.852-.466s-.171,1.375-.369,3.1a.737.737,0,0,1-.028.244c-.028.085,0,.188-.034.278-.034.256-.068.517-.091.779s-.045.392-.057.6-.04.415-.057.625a32.48,32.48,0,0,0-.1,4.467Z" transform="translate(-130.287 -107.838)" fill="#ad6359"/>
      <path id="Path_7717" data-name="Path 7717" d="M192.932,127.372l-.921,4.779a10.8,10.8,0,0,1-6.251-5.211l.057-.483c.2-1.7.369-3.1.369-3.1l.852.466Z" transform="translate(-130.552 -107.838)" fill="#263238"/>
      <path id="Path_7718" data-name="Path 7718" d="M196.708,108.7c1.239,8.8-3.9,10.536-5.8,10.8-1.7.239-7.621.835-9.758-7.8s1.563-11.985,5.478-12.741S195.5,99.9,196.708,108.7Z" transform="translate(-128.293 -97.234)" fill="#ad6359"/>
      <path id="Path_7719" data-name="Path 7719" d="M205.424,113.43a5.379,5.379,0,0,1-.608-.074,1.012,1.012,0,0,1-.608-.2.307.307,0,0,1-.028-.381.773.773,0,0,1,.75-.25,1.137,1.137,0,0,1,.756.347.335.335,0,0,1-.261.557Z" transform="translate(-138.481 -103.154)" fill="#263238"/>
      <path id="Path_7720" data-name="Path 7720" d="M195.518,113.949a5.825,5.825,0,0,0,.568-.176.972.972,0,0,0,.568-.3.307.307,0,0,0-.034-.381.779.779,0,0,0-.784-.119,1.137,1.137,0,0,0-.688.466.335.335,0,0,0,.369.506Z" transform="translate(-134.582 -103.331)" fill="#263238"/>
      <path id="Path_7721" data-name="Path 7721" d="M197.963,117.64s-.045,0-.04.057c.085.6.08,1.3-.443,1.557v.034C198.139,119.123,198.139,118.191,197.963,117.64Z" transform="translate(-135.612 -105.369)" fill="#263238"/>
      <path id="Path_7722" data-name="Path 7722" d="M196.748,116.63c-.972.034-.841,1.983.063,1.955S197.566,116.607,196.748,116.63Z" transform="translate(-135.005 -104.933)" fill="#263238"/>
      <path id="Path_7723" data-name="Path 7723" d="M195.728,116.851c-.159.119-.313.33-.517.364s-.432-.153-.6-.341h-.034a.7.7,0,0,0,.568.773c.381.028.608-.324.671-.7C195.864,116.931,195.8,116.8,195.728,116.851Z" transform="translate(-134.36 -105.023)" fill="#263238"/>
      <path id="Path_7724" data-name="Path 7724" d="M204.259,117.09a.05.05,0,0,1,.051.051c0,.6.165,1.29.727,1.449v.034C204.362,118.585,204.191,117.67,204.259,117.09Z" transform="translate(-138.532 -105.131)" fill="#263238"/>
      <path id="Path_7725" data-name="Path 7725" d="M204.751,115.9c.966-.153,1.2,1.784.307,1.927S203.944,116.028,204.751,115.9Z" transform="translate(-138.535 -104.615)" fill="#263238"/>
      <path id="Path_7726" data-name="Path 7726" d="M205.8,115.886c.165.08.341.25.523.239s.347-.239.46-.455h.034c.051.369,0,.767-.369.887s-.568-.188-.727-.568C205.695,115.96,205.734,115.858,205.8,115.886Z" transform="translate(-139.166 -104.518)" fill="#263238"/>
      <path id="Path_7727" data-name="Path 7727" d="M199.662,126.3a.933.933,0,0,0,.568.278,1.6,1.6,0,0,0,.625-.244h.028a.824.824,0,0,1-.716.438.654.654,0,0,1-.568-.466C199.594,126.3,199.639,126.287,199.662,126.3Z" transform="translate(-136.526 -109.106)" fill="#263238"/>
      <path id="Path_7728" data-name="Path 7728" d="M198.984,118.406a2.023,2.023,0,0,0,1.466.682,2.785,2.785,0,0,0,.722-.08l.136-.04.125-.04a.136.136,0,0,0,.1-.148h0a.166.166,0,0,0,0-.057h0v-.045c-.063-.455-.21-1.137-.21-1.137.176.057,1.074.3,1.023.068a30.474,30.474,0,0,0-1.7-5.9.057.057,0,0,0-.108.028c.335,1.875.989,3.671,1.353,5.547a3.49,3.49,0,0,0-.983-.136c-.062,0,.313,1.3.324,1.512h0a2.779,2.779,0,0,1-2.165-.318C198.984,118.32,198.933,118.366,198.984,118.406Z" transform="translate(-136.252 -102.793)" fill="#263238"/>
      <path id="Path_7729" data-name="Path 7729" d="M180.215,110.545c2.108-.091,1.921-3.41,1.921-3.41s2.375-.341,2.353-4.2a5.836,5.836,0,0,0,4.546,2.574c.693.068-1.7-1.591-1.7-1.591s2.876,2.353,7.956,1.137c.358-.085-.688-5.433-4.785-7.064a8.479,8.479,0,0,0-10,2.273,4.853,4.853,0,0,0-2.375,3.916C177.9,106.965,179.4,110.579,180.215,110.545Z" transform="translate(-127.246 -96.569)" fill="#263238"/>
      <path id="Path_7730" data-name="Path 7730" d="M181.461,120.8s-2.08-2.671-3.3-1.915.449,4.7,1.955,5.172a1.506,1.506,0,0,0,1.966-.915Z" transform="translate(-127.089 -105.849)" fill="#ad6359"/>
      <path id="Path_7731" data-name="Path 7731" d="M179.37,121v.04a3.787,3.787,0,0,1,2.086,2.273.83.83,0,0,0-1.25-.165c-.028,0,0,.063,0,.057a.926.926,0,0,1,1.034.267,4.988,4.988,0,0,1,.534.8c.051.091.216.034.176-.074h0C181.916,122.83,180.8,121.034,179.37,121Z" transform="translate(-127.794 -106.819)" fill="#263238"/>
      <path id="Path_7732" data-name="Path 7732" d="M183.006,126.968a.438.438,0,1,1-.148-.3.438.438,0,0,1,.148.3Z" transform="translate(-128.986 -109.219)" fill="#fff"/>
      <path id="Path_7733" data-name="Path 7733" d="M183.252,116.25l-3.722-.017.08-.983,3.677.443Z" transform="translate(-127.863 -104.337)" fill="#90b645"/>
      <path id="Path_7734" data-name="Path 7734" d="M183.576,114.111l-3.666-.676.256-.955,3.541,1.091Z" transform="translate(-128.027 -103.141)" fill="#90b645"/>
      <path id="Path_7735" data-name="Path 7735" d="M167.776,146.6c-1.7,4.4-8.076,25.227-5.331,32.876,1.7,4.694,18.3,13.946,22.51,16.009,1.836.9,8.525-10.928,7.712-12.952s-16.663-9.826-17.7-11.088c0,0-.568-14.844-.887-22.732C173.777,141.232,170.993,138.362,167.776,146.6Z" transform="translate(-120.195 -115.719)" fill="#ad6359"/>
      <path id="Path_7736" data-name="Path 7736" d="M220.316,219.169c2.347,1.006,6.251.386,6.069,2.273-.182,1.7-2.938,1.847-2.938,1.847s3.165.818,2.461,2.569-3.762,1.318-3.762,1.318,2.665.568,1.836,2.273-3.5,1.807-3.5,1.807.654.682-.472,1.62c-1.614,1.341-6.041.392-8.24-.654s-9.462-6.49-10.559-7.342l6.581-14.151s4.762.051,7.172.375,10.059,3.592,9.377,5.547-6.041-.449-7.485-.75-1.756,0-1.21.625A31.71,31.71,0,0,0,220.316,219.169Z" transform="translate(-137.222 -145.556)" fill="#ad6359"/>
      <path id="Path_7737" data-name="Path 7737" d="M233.408,230.6c-3.859-.046-5.535-.727-8.723-2.79-.062-.04-.136.045-.08.091,2.938,2.3,4.922,3.467,8.809,2.887C233.606,230.756,233.589,230.6,233.408,230.6Z" transform="translate(-147.312 -152.925)" fill="#263238"/>
      <path id="Path_7738" data-name="Path 7738" d="M231.2,237.3a20.48,20.48,0,0,1-9.332-3.035.051.051,0,0,0-.051.085c3.273,2.165,5.279,3.279,9.326,3.148C231.332,237.525,231.383,237.32,231.2,237.3Z" transform="translate(-146.112 -155.716)" fill="#263238"/>
      <path id="Path_7739" data-name="Path 7739" d="M228.094,243.967a18.273,18.273,0,0,1-9.042-3.66.071.071,0,1,0-.091.108,12.94,12.94,0,0,0,9.093,3.671C228.309,244.1,228.338,244.013,228.094,243.967Z" transform="translate(-144.874 -158.317)" fill="#263238"/>
      <path id="Path_7740" data-name="Path 7740" d="M175.885,158.919l-13.315,2.574s4.319-14.293,6.774-18.14c2.768-4.325,4.376-1.966,5.461,2.79S175.885,158.919,175.885,158.919Z" transform="translate(-120.541 -115.488)" fill="#90b645"/>
      <path id="Path_7741" data-name="Path 7741" d="M177.12,153.984a1.029,1.029,0,1,1-1.023-1.023A1.029,1.029,0,0,1,177.12,153.984Zm-4.706-6.854c-.267.529-.568,1.137-.83,1.807a.978.978,0,0,0,.614.21,1.017,1.017,0,0,0,1.023-1.023A1.006,1.006,0,0,0,172.415,147.13Zm-.188,11.889a1.023,1.023,0,1,0,1.029,1.023A1.023,1.023,0,0,0,172.227,159.019Zm7.388.085a1.023,1.023,0,0,0,.04,1.892C179.615,160.57,179.615,159.917,179.615,159.1Z" transform="translate(-124.271 -118.1)" fill="#fff"/>
      <path id="Path_7742" data-name="Path 7742" d="M165.047,170.509c.449-.159,4.592-1.023,5.5-1.188s4.6-.887,5.547-.983a.034.034,0,1,1,0,.063c-.909.273-4.626,1.012-5.547,1.2s-5.035.949-5.5.972C165.007,170.571,165.007,170.52,165.047,170.509Z" transform="translate(-121.597 -127.254)" fill="#263238"/>
      <path id="Path_7743" data-name="Path 7743" d="M184.133,163.889c.4-.108,1.017-.244,1.017-.244,0-1.58-.637-9.547-.762-11.474a.023.023,0,1,1,.045,0q.216,1.631.4,3.251v-.409c.028-.494.068-.983.08-1.472a.032.032,0,1,1,.063,0,10.8,10.8,0,0,1,0,1.483c-.028.352-.074.693-.125,1.04.068.625.142,1.245.193,1.87.159,1.921.392,3.9.4,5.831a7.311,7.311,0,0,1-1.358.227C184.082,164,184.076,163.906,184.133,163.889Z" transform="translate(-129.829 -120.265)" fill="#263238"/>
      <path id="Path_7744" data-name="Path 7744" d="M163.769,168.957c-.426.125-.847.227-1.273.341l-.136.034v-.148a43.1,43.1,0,0,1,1.432-5.194c.29-.852.568-1.7.938-2.529s.693-1.654,1.091-2.461c-.256.864-.534,1.7-.807,2.563l-.83,2.557-1.648,5.115-.1-.114C162.894,169.065,163.332,169,163.769,168.957Z" transform="translate(-120.45 -123.224)" fill="#263238"/>
      <path id="Path_7745" data-name="Path 7745" d="M166.318,162.937a2.273,2.273,0,0,1-.091-1.1,2.959,2.959,0,0,1,.119-.568,2.4,2.4,0,0,1,.233-.506,6.82,6.82,0,0,1-.074,1.085A9.894,9.894,0,0,1,166.318,162.937Z" transform="translate(-122.107 -123.984)" fill="#263238"/>
      <path id="Path_7746" data-name="Path 7746" d="M272.949,108.641a2.273,2.273,0,0,1,2.341,1.318s1.029-1.915,2.841-1.784c.926.068,1.631,1.608,1.631,1.608a2.691,2.691,0,0,1,2.483-1.279c1.273.171,1.79,1.7,1.79,1.7a3.206,3.206,0,0,1,2.762-.449c2.506,1.193,2.188,12.2-1.915,13.776-1.91.739-1.7-1.944-1.7-1.944s-1.25,3.779-3.518,3.768-1.773-3.472-1.773-3.472-1.245,3.648-3.6,3.41c-2.449-.256-1.353-3.637-1.353-3.637s-1.7,2.4-3.484,1.8c-2.9-.989,1.21-6.166.7-8.6l-4.478-1.137S270.977,108.795,272.949,108.641Z" transform="translate(-165.053 -101.28)" fill="#ad6359"/>
      <path id="Path_7747" data-name="Path 7747" d="M297.269,112.057a.028.028,0,1,1,.057,0,19.083,19.083,0,0,1-1.006,11.321c-.045.114-.25.08-.222-.057A38.855,38.855,0,0,0,297.269,112.057Z" transform="translate(-178.184 -102.946)" fill="#263238"/>
      <path id="Path_7748" data-name="Path 7748" d="M288.964,110.846c0-.04.068-.045.08,0a17.873,17.873,0,0,1-1.864,12.27c-.074.131-.273.171-.193,0C288.27,120.53,289.168,114.4,288.964,110.846Z" transform="translate(-174.243 -102.422)" fill="#263238"/>
      <path id="Path_7749" data-name="Path 7749" d="M278,123.259a24.545,24.545,0,0,0,2.631-11.747c0-.051.08-.045.091,0a16.1,16.1,0,0,1-.182,6.689,10.957,10.957,0,0,1-2.415,5.115C278.091,123.39,278,123.339,278,123.259Z" transform="translate(-170.372 -102.708)" fill="#263238"/>
      <path id="Path_7750" data-name="Path 7750" d="M285.483,131.067a7.9,7.9,0,0,1-1.029,2.154,3.41,3.41,0,0,1-1.91,1.483,2.063,2.063,0,0,1-1.267-.068,1.7,1.7,0,0,1-.887-.938,4.887,4.887,0,0,1-.2-2.455l.381.1a7.273,7.273,0,0,1-1.245,2.114,3.552,3.552,0,0,1-2.131,1.267,2.54,2.54,0,0,1-1.279-.153,1.648,1.648,0,0,1-.892-.949,4.126,4.126,0,0,1,.063-2.461l.239.131a6.185,6.185,0,0,1-.87.813,4.267,4.267,0,0,1-1.023.6,2.42,2.42,0,0,1-1.171.165,1.938,1.938,0,0,1-1.034-.523,1.983,1.983,0,0,0,1.046.432,2.273,2.273,0,0,0,1.1-.227,5.353,5.353,0,0,0,1.739-1.432l.381-.455-.142.568a3.888,3.888,0,0,0,0,2.273,1.261,1.261,0,0,0,.7.733,2.114,2.114,0,0,0,1.068.108,3.154,3.154,0,0,0,1.87-1.137,7.2,7.2,0,0,0,1.193-1.972l.614-1.517-.233,1.62a4.546,4.546,0,0,0,.148,2.245,1.4,1.4,0,0,0,.682.779,1.8,1.8,0,0,0,1.068.063,3.347,3.347,0,0,0,1.836-1.313A8.587,8.587,0,0,0,285.483,131.067Z" transform="translate(-167.449 -110.584)" fill="#263238"/>
      <circle id="Ellipse_943" data-name="Ellipse 943" cx="18.794" cy="18.794" r="18.794" transform="translate(109.032 101.728)" fill="#90b645"/>
      <rect id="Rectangle_8061" data-name="Rectangle 8061" width="3.859" height="23.215" transform="translate(125.899 108.911)" fill="#fff"/>
      <rect id="Rectangle_8062" data-name="Rectangle 8062" width="3.859" height="23.215" transform="translate(139.436 118.595) rotate(90)" fill="#fff"/>
    </g>
  </g>
</svg>
