<svg xmlns="http://www.w3.org/2000/svg" width="51.532" height="51.485" viewBox="0 0 51.532 51.485">
  <g id="Change_password" transform="translate(-20.836 -21.212)">
    <path id="Path_6095" data-name="Path 6095" d="M128.377,142.794a1.085,1.085,0,1,0-1.925,1,23.583,23.583,0,0,1-37.6,27.559,1.085,1.085,0,0,0-1.852.768v6.237a1.085,1.085,0,1,0,2.17,0v-3.787a25.755,25.755,0,0,0,39.2-31.779Z" transform="translate(-58.915 -107.734)" fill="#fff"/>
    <path id="Path_6096" data-name="Path 6096" d="M29.941,30.276a23.607,23.607,0,0,1,33.346,0,1.084,1.084,0,0,0,1.852-.767V23.271a1.085,1.085,0,0,0-2.17,0v3.787a25.755,25.755,0,0,0-39.2,31.779,1.085,1.085,0,1,0,1.925-1,23.485,23.485,0,0,1,4.25-27.559Z" fill="#fff"/>
    <path id="Path_6097" data-name="Path 6097" d="M126.4,229.809v9.135a2.26,2.26,0,0,0,2.254,2.254h17.129a2.26,2.26,0,0,0,2.254-2.254v-9.135a2.26,2.26,0,0,0-2.254-2.254H128.655a2.261,2.261,0,0,0-2.254,2.254Zm16.828,2.8a1.765,1.765,0,1,1-1.765,1.765A1.765,1.765,0,0,1,143.229,232.612Zm-6.01,0a1.765,1.765,0,1,1-1.765,1.765A1.765,1.765,0,0,1,137.219,232.612Zm-6.01,0a1.765,1.765,0,1,1-1.765,1.765A1.765,1.765,0,0,1,131.209,232.612Z" transform="translate(-90.605 -183.344)" fill="#fff"/>
    <path id="Path_6098" data-name="Path 6098" d="M182.98,94.423V91.417a7.317,7.317,0,0,0-14.634,0v3.005H170V91.417a5.665,5.665,0,0,1,11.329,0v3.005Z" transform="translate(-129.049 -51.102)" fill="#fff"/>
  </g>
</svg>
